<svg width="16" height="17" viewBox="0 0 16 17" fill="none" xmlns="http://www.w3.org/2000/svg">
<path fill-rule="evenodd" clip-rule="evenodd" d="M6.81945 1.79919C7.16765 1.60328 7.56046 1.50037 7.95999 1.50037C8.35953 1.50037 8.75233 1.60328 9.10054 1.79919C9.44875 1.9951 9.74062 2.27741 9.94803 2.61889L9.95118 2.62409L15.5665 11.9974L15.5748 12.0115C15.7777 12.3632 15.8851 12.7618 15.8862 13.1678C15.8873 13.5738 15.7821 13.973 15.581 14.3258C15.38 14.6785 15.0902 14.9725 14.7403 15.1785C14.3904 15.3845 13.9927 15.4953 13.5868 15.4999L13.5753 15.5001L2.33389 15.5C1.92792 15.4954 1.53023 15.3845 1.18036 15.1785C0.830497 14.9725 0.540644 14.6785 0.339619 14.3258C0.138593 13.973 0.0333984 13.5738 0.0344933 13.1678C0.0355883 12.7618 0.142935 12.3632 0.34586 12.0115L0.354123 11.9975L5.97194 2.61888C6.17935 2.2774 6.47124 1.9951 6.81945 1.79919ZM7.95999 3.50037C7.904 3.50037 7.84894 3.51479 7.80014 3.54225C7.75193 3.56937 7.71142 3.60832 7.68242 3.6554L2.07546 13.0159C2.04875 13.064 2.03463 13.1181 2.03449 13.1732C2.03433 13.2301 2.04908 13.2861 2.07725 13.3355C2.10543 13.385 2.14605 13.4262 2.19509 13.455C2.24303 13.4832 2.29737 13.4987 2.35295 13.5H13.5677C13.6233 13.4987 13.6776 13.4832 13.7256 13.455C13.7746 13.4262 13.8152 13.385 13.8434 13.3355C13.8716 13.2861 13.8863 13.2301 13.8862 13.1732C13.886 13.1181 13.8719 13.064 13.8452 13.0159L8.23757 3.65541C8.20857 3.60832 8.16806 3.56938 8.11985 3.54225C8.07104 3.51479 8.01599 3.50037 7.95999 3.50037ZM8 5.50001C8.55228 5.50001 9 5.94773 9 6.50001V9.16668C9 9.71896 8.55228 10.1667 8 10.1667C7.44771 10.1667 7 9.71896 7 9.16668V6.50001C7 5.94773 7.44771 5.50001 8 5.50001ZM7 11.8333C7 11.2811 7.44771 10.8333 8 10.8333H8.00667C8.55895 10.8333 9.00667 11.2811 9.00667 11.8333C9.00667 12.3856 8.55895 12.8333 8.00667 12.8333H8C7.44771 12.8333 7 12.3856 7 11.8333Z" fill="#F1AA3F"/>
</svg>
