<svg width="75" height="80" viewBox="0 0 75 80" fill="none" xmlns="http://www.w3.org/2000/svg">
<path d="M37.5025 24.4528C35.6883 24.4528 34.2098 22.9549 34.2098 21.1167C34.2098 19.2786 35.6883 17.7807 37.5025 17.7807C39.3167 17.7807 40.7951 19.2786 40.7951 21.1167C40.7951 22.9549 39.3167 24.4528 37.5025 24.4528ZM37.5025 19.4322C36.5818 19.4322 35.8345 20.1894 35.8345 21.1222C35.8345 22.055 36.5818 22.8122 37.5025 22.8122C38.4231 22.8122 39.1705 22.055 39.1705 21.1222C39.1705 20.1894 38.4231 19.4322 37.5025 19.4322Z" fill="#154764"/>
<path d="M25.1983 72.985C24.8788 72.985 24.5918 72.7985 24.4564 72.5022L22.2414 67.5749H10.7659C8.3722 67.5749 6.37927 65.6764 6.22764 63.2566L2.91873 9.6325C2.90249 9.40753 2.98372 9.18257 3.13536 9.01796C3.28699 8.85335 3.50361 8.76007 3.72565 8.76007H71.0464C71.2684 8.76007 71.4851 8.85335 71.6367 9.01796C71.7883 9.18257 71.8696 9.40753 71.8533 9.6325L68.5173 63.2621C68.3657 65.6819 66.3728 67.5749 63.9791 67.5749H51.8916L50.099 72.2662C49.9799 72.579 49.682 72.7875 49.3463 72.793L25.1929 72.9795H25.1875L25.1983 72.985ZM4.59756 10.4062L7.85772 63.1579C7.9552 64.7107 9.23327 65.9288 10.7713 65.9288H22.7722C23.0917 65.9288 23.3787 66.1153 23.5141 66.4116L25.729 71.3335L48.7993 71.1524L50.5973 66.4555C50.7164 66.1373 51.0197 65.9288 51.3554 65.9288H64.0008C65.5388 65.9288 66.8168 64.7107 66.9143 63.1579L70.1962 10.4062H4.59756Z" fill="#154764"/>
<path d="M15.055 79.9809C12.0493 79.9809 9.60693 77.5063 9.60693 74.461C9.60693 72.2059 11.0041 70.1428 13.0783 69.3362L13.9394 69.0015L14.9737 73.2594L16.4522 69.0509L17.2537 69.4185C19.225 70.3129 20.4976 72.2937 20.4976 74.4665C20.4976 77.5118 18.0552 79.9864 15.0496 79.9864L15.055 79.9809ZM12.8292 71.328C11.849 72.0413 11.2316 73.21 11.2316 74.4665C11.2316 76.601 12.9483 78.3403 15.055 78.3403C17.1616 78.3403 18.8784 76.601 18.8784 74.4665C18.8784 73.2484 18.3043 72.1126 17.362 71.3829L16.1977 74.697C16.0135 75.2621 15.472 75.6353 14.8709 75.6078C14.2697 75.5804 13.7661 75.1634 13.6253 74.5708L12.8346 71.328H12.8292ZM14.6596 74.1483C14.6596 74.1483 14.6596 74.1538 14.6596 74.1593V74.1483Z" fill="#154764"/>
<path d="M14.925 75.6078C14.925 75.6078 14.8871 75.6078 14.8654 75.6078C14.2643 75.5804 13.7607 75.1634 13.6199 74.5708L11.524 65.9343H19.2845L16.1923 74.697C16.0135 75.2457 15.5045 75.6078 14.925 75.6078ZM14.6597 74.1483C14.6597 74.1483 14.6597 74.1538 14.6597 74.1593V74.1483ZM13.5982 67.5804L14.9792 73.2594L16.9829 67.5804H13.6036H13.5982Z" fill="#154764"/>
<path d="M59.5925 80.0029C56.5869 80.0029 54.1445 77.5283 54.1445 74.483C54.1445 72.3102 55.4117 70.3239 57.3667 69.435L58.1682 69.0728L59.6683 73.2923L60.7081 68.985L61.5746 69.3362C63.6488 70.1702 65.0406 72.2388 65.0406 74.483C65.0406 77.5283 62.5981 80.0029 59.5925 80.0029ZM57.2692 71.3993C56.3378 72.1236 55.7691 73.2594 55.7691 74.483C55.7691 76.6174 57.4859 78.3568 59.5925 78.3568C61.6992 78.3568 63.4159 76.6174 63.4159 74.483C63.4159 73.232 62.7985 72.0632 61.8129 71.339L61.0222 74.5982C60.8814 75.1963 60.3724 75.6188 59.7658 75.6462C59.1701 75.6791 58.634 75.306 58.4444 74.7299L57.2638 71.4103L57.2692 71.3993Z" fill="#154764"/>
<path d="M59.7062 75.6407C59.1322 75.6407 58.6286 75.2786 58.4444 74.7189L55.363 65.9727H63.1235L61.0222 74.5927C60.8814 75.1908 60.3724 75.6133 59.7658 75.6407C59.7442 75.6407 59.7279 75.6407 59.7062 75.6407ZM57.6646 67.6188L59.6683 73.2923L61.0493 67.6188H57.67H57.6646Z" fill="#154764"/>
<path d="M74.1874 10.4061H0.812081C0.573796 10.4061 0.340927 10.2964 0.189292 10.1099C0.0376564 9.92329 -0.0273302 9.67638 0.0105787 9.43495L0.747094 5.27583C1.31573 2.10985 3.8827 -0.090422 6.84501 0.00285648L69.2376 2.46651C72.4707 2.59271 75.0052 5.4569 75.0052 8.98502V9.5831C75.0052 10.0385 74.6423 10.4061 74.1928 10.4061H74.1874ZM1.78146 8.76006H73.3697C73.2668 6.22508 71.458 4.20039 69.1672 4.1126L6.78002 1.64895C4.63546 1.54469 2.7671 3.21273 2.3501 5.57213L1.78146 8.76006Z" fill="#154764"/>
<path d="M21.2504 16.7875H9.44447C8.99498 16.7875 8.63214 16.4199 8.63214 15.9645V9.58312C8.63214 9.1277 8.99498 8.76007 9.44447 8.76007H21.2504C21.6999 8.76007 22.0627 9.1277 22.0627 9.58312V15.9645C22.0627 16.4199 21.6999 16.7875 21.2504 16.7875ZM10.2568 15.1414H20.438V10.4062H10.2568V15.1414Z" fill="#154764"/>
<path d="M65.203 16.7875H53.3971C52.9476 16.7875 52.5848 16.4199 52.5848 15.9645V9.58312C52.5848 9.1277 52.9476 8.76007 53.3971 8.76007H65.203C65.6525 8.76007 66.0154 9.1277 66.0154 9.58312V15.9645C66.0154 16.4199 65.6525 16.7875 65.203 16.7875ZM54.2094 15.1414H64.3907V10.4062H54.2094V15.1414Z" fill="#154764"/>
<path d="M37.3887 30.2141C32.9967 30.2141 29.4171 26.5927 29.4171 22.1428V9.58861H31.0417V22.1428C31.0417 25.6874 33.8903 28.568 37.3887 28.568C40.8872 28.568 43.7304 25.6874 43.7304 22.1428V9.58861H45.355V22.1428C45.355 26.5927 41.7808 30.2141 37.3887 30.2141Z" fill="#154764"/>
</svg>
