<svg width="75" height="80" viewBox="0 0 75 80" fill="none" xmlns="http://www.w3.org/2000/svg">
<g clip-path="url(#clip0_1548_1674)">
<path d="M37.5027 24.45C35.6885 24.45 34.2101 22.952 34.2101 21.1139C34.2101 19.2758 35.6885 17.7778 37.5027 17.7778C39.317 17.7778 40.7954 19.2758 40.7954 21.1139C40.7954 22.952 39.317 24.45 37.5027 24.45ZM37.5027 19.4294C36.5821 19.4294 35.8347 20.1866 35.8347 21.1194C35.8347 22.0522 36.5821 22.8094 37.5027 22.8094C38.4234 22.8094 39.1707 22.0522 39.1707 21.1194C39.1707 20.1866 38.4234 19.4294 37.5027 19.4294Z" fill="white"/>
<path d="M25.1986 72.9822C24.8791 72.9822 24.5921 72.7956 24.4567 72.4993L22.2417 67.572H10.7662C8.3725 67.572 6.37958 65.6735 6.22794 63.2538L2.91904 9.62963C2.90279 9.40466 2.98403 9.1797 3.13566 9.01509C3.2873 8.85048 3.50392 8.7572 3.72596 8.7572H71.0467C71.2687 8.7572 71.4854 8.85048 71.637 9.01509C71.7886 9.1797 71.8699 9.40466 71.8536 9.62963L68.5176 63.2593C68.366 65.679 66.3731 67.572 63.9794 67.572H51.8919L50.0993 72.2634C49.9802 72.5761 49.6823 72.7846 49.3466 72.7901L25.1932 72.9767H25.1878L25.1986 72.9822ZM4.59786 10.4033L7.85802 63.155C7.9555 64.7078 9.23357 65.9259 10.7716 65.9259H22.7725C23.092 65.9259 23.379 66.1125 23.5144 66.4088L25.7293 71.3306L48.7996 71.1495L50.5976 66.4527C50.7167 66.1344 51.02 65.9259 51.3557 65.9259H64.0011C65.5391 65.9259 66.8172 64.7078 66.9146 63.155L70.1965 10.4033H4.59786Z" fill="white"/>
<path d="M15.0552 79.9781C12.0496 79.9781 9.60718 77.5035 9.60718 74.4582C9.60718 72.203 11.0044 70.1399 13.0785 69.3334L13.9396 68.9987L14.974 73.2565L16.4524 69.048L17.2539 69.4157C19.2252 70.31 20.4979 72.2908 20.4979 74.4637C20.4979 77.5089 18.0554 79.9836 15.0498 79.9836L15.0552 79.9781ZM12.8294 71.3251C11.8492 72.0384 11.2318 73.2072 11.2318 74.4637C11.2318 76.5981 12.9486 78.3375 15.0552 78.3375C17.1619 78.3375 18.8786 76.5981 18.8786 74.4637C18.8786 73.2456 18.3046 72.1098 17.3623 71.38L16.1979 74.6941C16.0138 75.2593 15.4722 75.6324 14.8711 75.605C14.27 75.5775 13.7663 75.1605 13.6255 74.5679L12.8348 71.3251H12.8294ZM14.6599 74.1454C14.6599 74.1454 14.6599 74.1509 14.6599 74.1564V74.1454Z" fill="white"/>
<path d="M14.9253 75.6049C14.9253 75.6049 14.8874 75.6049 14.8657 75.6049C14.2646 75.5775 13.7609 75.1605 13.6201 74.5679L11.5243 65.9314H19.2848L16.1925 74.6941C16.0138 75.2428 15.5047 75.6049 14.9253 75.6049ZM14.6599 74.1454C14.6599 74.1454 14.6599 74.1509 14.6599 74.1564V74.1454ZM13.5984 67.5775L14.9794 73.2565L16.9832 67.5775H13.6039H13.5984Z" fill="white"/>
<path d="M59.5927 80C56.5871 80 54.1447 77.5254 54.1447 74.4801C54.1447 72.3073 55.4119 70.321 57.3669 69.4321L58.1684 69.07L59.6685 73.2895L60.7083 68.9822L61.5748 69.3333C63.6489 70.1674 65.0407 72.236 65.0407 74.4801C65.0407 77.5254 62.5983 80 59.5927 80ZM57.2694 71.3964C56.338 72.1207 55.7693 73.2565 55.7693 74.4801C55.7693 76.6146 57.486 78.3539 59.5927 78.3539C61.6993 78.3539 63.4161 76.6146 63.4161 74.4801C63.4161 73.2291 62.7987 72.0604 61.8131 71.3361L61.0224 74.5953C60.8816 75.1934 60.3725 75.6159 59.766 75.6434C59.1703 75.6763 58.6341 75.3032 58.4446 74.727L57.264 71.4074L57.2694 71.3964Z" fill="white"/>
<path d="M59.7064 75.6379C59.1324 75.6379 58.6287 75.2757 58.4446 74.7161L55.3632 65.9698H63.1236L61.0224 74.5899C60.8816 75.188 60.3725 75.6105 59.766 75.6379C59.7443 75.6379 59.7281 75.6379 59.7064 75.6379ZM57.6648 67.6159L59.6685 73.2895L61.0495 67.6159H57.6702H57.6648Z" fill="white"/>
<path d="M74.1877 10.4032H0.812325C0.57404 10.4032 0.341172 10.2935 0.189536 10.1069C0.0379006 9.92036 -0.0270861 9.67345 0.0108228 9.43202L0.747338 5.2729C1.31597 2.10692 3.88294 -0.0933517 6.84525 -7.32059e-05L69.2378 2.46358C72.4709 2.58978 75.0054 5.45397 75.0054 8.98209V9.58017C75.0054 10.0356 74.6426 10.4032 74.1931 10.4032H74.1877ZM1.78171 8.75713H73.3699C73.267 6.22215 71.4582 4.19746 69.1674 4.10967L6.78026 1.64602C4.63571 1.54176 2.76734 3.2098 2.35034 5.5692L1.78171 8.75713Z" fill="white"/>
<path d="M21.2507 16.7846H9.44478C8.99529 16.7846 8.63245 16.417 8.63245 15.9616V9.58025C8.63245 9.12483 8.99529 8.7572 9.44478 8.7572H21.2507C21.7002 8.7572 22.063 9.12483 22.063 9.58025V15.9616C22.063 16.417 21.7002 16.7846 21.2507 16.7846ZM10.2571 15.1385H20.4384V10.4033H10.2571V15.1385Z" fill="white"/>
<path d="M65.2032 16.7846H53.3973C52.9478 16.7846 52.585 16.417 52.585 15.9616V9.58025C52.585 9.12483 52.9478 8.7572 53.3973 8.7572H65.2032C65.6527 8.7572 66.0155 9.12483 66.0155 9.58025V15.9616C66.0155 16.417 65.6527 16.7846 65.2032 16.7846ZM54.2096 15.1385H64.3909V10.4033H54.2096V15.1385Z" fill="white"/>
<path d="M37.3889 30.2112C32.9969 30.2112 29.4172 26.5898 29.4172 22.1399V9.58569H31.0419V22.1399C31.0419 25.6845 33.8905 28.5651 37.3889 28.5651C40.8874 28.5651 43.7305 25.6845 43.7305 22.1399V9.58569H45.3552V22.1399C45.3552 26.5898 41.7809 30.2112 37.3889 30.2112Z" fill="white"/>
</g>
<defs>
<clipPath id="clip0_1548_1674">
<rect width="75" height="80" fill="white"/>
</clipPath>
</defs>
</svg>
