<svg width="16" height="17" viewBox="0 0 16 17" fill="none" xmlns="http://www.w3.org/2000/svg">
<path fill-rule="evenodd" clip-rule="evenodd" d="M5 1.5C2.79086 1.5 1 3.29086 1 5.5V11.5C1 13.7091 2.79086 15.5 5 15.5H11C13.2091 15.5 15 13.7091 15 11.5V5.5C15 3.29086 13.2091 1.5 11 1.5H5ZM11.6364 7.1364C11.9878 6.78493 11.9878 6.21508 11.6364 5.86361C11.2849 5.51214 10.7151 5.51214 10.3636 5.86361L6.99998 9.22721L5.63637 7.86361C5.2849 7.51214 4.71505 7.51214 4.36358 7.86361C4.01211 8.21508 4.01211 8.78493 4.36358 9.1364L6.36358 11.1364C6.53236 11.3052 6.76128 11.4 6.99998 11.4C7.23867 11.4 7.46759 11.3052 7.63637 11.1364L11.6364 7.1364Z" fill="#154764"/>
</svg>
