<svg width="16" height="16" viewBox="0 0 16 16" fill="none" xmlns="http://www.w3.org/2000/svg">
<path d="M11.3333 2.22676C12.3389 2.80733 13.1753 3.64044 13.7599 4.64362C14.3445 5.64681 14.6569 6.78527 14.6663 7.94632C14.6757 9.10736 14.3817 10.2507 13.8134 11.2632C13.2451 12.2757 12.4222 13.1222 11.4262 13.719C10.4302 14.3157 9.29559 14.642 8.13474 14.6655C6.9739 14.689 5.82704 14.4089 4.80771 13.8529C3.78838 13.297 2.93192 12.4844 2.32312 11.4958C1.71432 10.5071 1.37428 9.37656 1.33668 8.21609L1.33334 8.00009L1.33668 7.78409C1.37401 6.63275 1.70904 5.51073 2.3091 4.52742C2.90916 3.54411 3.75378 2.73306 4.7606 2.17335C5.76743 1.61363 6.90211 1.32436 8.05401 1.33372C9.20592 1.34308 10.3357 1.65076 11.3333 2.22676ZM8.00001 4.00009C7.83672 4.00011 7.67912 4.06006 7.5571 4.16857C7.43507 4.27707 7.35712 4.42659 7.33801 4.58876L7.33334 4.66676V8.00009L7.33934 8.08742C7.35454 8.20309 7.39983 8.31274 7.47068 8.40542L7.52868 8.47209L9.52868 10.4721L9.59134 10.5268C9.70826 10.6175 9.85203 10.6667 10 10.6667C10.148 10.6667 10.2918 10.6175 10.4087 10.5268L10.4713 10.4714L10.5267 10.4088C10.6174 10.2918 10.6666 10.1481 10.6666 10.0001C10.6666 9.85211 10.6174 9.70834 10.5267 9.59142L10.4713 9.52876L8.66668 7.72342V4.66676L8.66201 4.58876C8.64291 4.42659 8.56495 4.27707 8.44293 4.16857C8.3209 4.06006 8.1633 4.00011 8.00001 4.00009Z" fill="#606D7F"/>
</svg>
