<svg width="16" height="17" viewBox="0 0 16 17" fill="none" xmlns="http://www.w3.org/2000/svg">
<path fill-rule="evenodd" clip-rule="evenodd" d="M3.05025 3.55025C4.36301 2.2375 6.14348 1.5 8 1.5C9.85652 1.5 11.637 2.2375 12.9497 3.55025C14.2625 4.86301 15 6.64348 15 8.5C15 9.41925 14.8189 10.3295 14.4672 11.1788C14.1154 12.0281 13.5998 12.7997 12.9497 13.4497C12.2997 14.0998 11.5281 14.6154 10.6788 14.9672C9.8295 15.3189 8.91925 15.5 8 15.5C7.08075 15.5 6.1705 15.3189 5.32122 14.9672C4.47194 14.6154 3.70026 14.0998 3.05025 13.4497C2.40024 12.7997 1.88463 12.0281 1.53284 11.1788C1.18106 10.3295 1 9.41925 1 8.5C1 6.64348 1.7375 4.86301 3.05025 3.55025ZM8 3.5C6.67392 3.5 5.40215 4.02678 4.46447 4.96447C3.52678 5.90215 3 7.17392 3 8.5C3 9.15661 3.12933 9.80679 3.3806 10.4134C3.63188 11.02 4.00017 11.5712 4.46447 12.0355C4.92876 12.4998 5.47996 12.8681 6.08658 13.1194C6.69321 13.3707 7.34339 13.5 8 13.5C8.65661 13.5 9.30679 13.3707 9.91342 13.1194C10.52 12.8681 11.0712 12.4998 11.5355 12.0355C11.9998 11.5712 12.3681 11.02 12.6194 10.4134C12.8707 9.80679 13 9.15661 13 8.5C13 7.17392 12.4732 5.90215 11.5355 4.96447C10.5979 4.02678 9.32608 3.5 8 3.5ZM8 4.83333C8.55228 4.83333 9 5.28105 9 5.83333V8.5C9 9.05228 8.55228 9.5 8 9.5C7.44772 9.5 7 9.05228 7 8.5V5.83333C7 5.28105 7.44772 4.83333 8 4.83333ZM7 11.1667C7 10.6144 7.44772 10.1667 8 10.1667H8.00667C8.55895 10.1667 9.00667 10.6144 9.00667 11.1667C9.00667 11.719 8.55895 12.1667 8.00667 12.1667H8C7.44772 12.1667 7 11.719 7 11.1667Z" fill="#ED4747"/>
</svg>
