<svg width="16" height="16" viewBox="0 0 16 16" fill="none" xmlns="http://www.w3.org/2000/svg">
<g clip-path="url(#clip0_1708_2750)">
<path fill-rule="evenodd" clip-rule="evenodd" d="M12.2426 3.75729C12.6332 4.14781 12.6332 4.78098 12.2426 5.1715L5.17157 12.2426C4.78105 12.6331 4.14788 12.6331 3.75736 12.2426C3.36684 11.852 3.36683 11.2189 3.75736 10.8284L10.8284 3.75729C11.219 3.36676 11.8521 3.36676 12.2426 3.75729Z" fill="white"/>
<path fill-rule="evenodd" clip-rule="evenodd" d="M3.75736 3.75729C4.14788 3.36676 4.78105 3.36676 5.17157 3.75729L12.2426 10.8284C12.6332 11.2189 12.6332 11.852 12.2426 12.2426C11.8521 12.6331 11.219 12.6331 10.8284 12.2426L3.75736 5.1715C3.36684 4.78098 3.36684 4.14781 3.75736 3.75729Z" fill="white"/>
</g>
<defs>
<clipPath id="clip0_1708_2750">
<rect width="16" height="16" fill="white"/>
</clipPath>
</defs>
</svg>
