<svg width="68" height="78" viewBox="0 0 68 78" fill="none" xmlns="http://www.w3.org/2000/svg">
<g clip-path="url(#clip0_6_45)">
<path d="M65.9675 78H2.03251C0.911124 78 0 77.0956 0 75.9772V2.02278C0 0.904363 0.911124 0 2.03251 0H65.9621C67.0835 0 67.9946 0.904363 67.9946 2.02278V75.9826C67.9946 77.0956 67.0835 78.0054 65.9621 78.0054L65.9675 78ZM2.03251 1.60538C1.80068 1.60538 1.61738 1.79267 1.61738 2.02278V75.9826C1.61738 76.2127 1.80607 76.4 2.03251 76.4H65.9621C66.1939 76.4 66.3772 76.2127 66.3772 75.9826V2.02278C66.3772 1.79267 66.1885 1.60538 65.9621 1.60538H2.03251Z" fill="white"/>
<path d="M58.5491 25.7503H9.4509C8.62065 25.7503 7.94135 25.076 7.94135 24.2519V9.88378C7.94135 9.05969 8.62065 8.38543 9.4509 8.38543H58.5491C59.3794 8.38543 60.0587 9.05969 60.0587 9.88378V24.2519C60.0587 25.076 59.3794 25.7503 58.5491 25.7503ZM9.55872 24.1449H58.4413V9.99081H9.55872V24.1449Z" fill="white"/>
<path d="M43.2379 22.7322H24.7621C23.9318 22.7322 23.2525 22.0633 23.2525 21.2338V12.8965C23.2525 12.0724 23.9318 11.3982 24.7621 11.3982H43.2379C44.0682 11.3982 44.7475 12.0671 44.7475 12.8965V21.2338C44.7475 22.0579 44.0682 22.7322 43.2379 22.7322ZM24.8699 21.1268H43.1301V13.0036H24.8699V21.1268Z" fill="white"/>
<path d="M51.465 19.5H49.012C48.2087 19.5 47.5563 18.8525 47.5563 18.0552V16.0805C47.5563 15.2832 48.2087 14.6357 49.012 14.6357H51.465C52.2683 14.6357 52.9206 15.2832 52.9206 16.0805V18.0552C52.9206 18.8525 52.2683 19.5 51.465 19.5ZM49.1737 17.8946H51.2979V16.2464H49.1737V17.8946Z" fill="white"/>
<path d="M58.5815 69.6146H9.42392C8.60984 69.6146 7.94672 68.9564 7.94672 68.1483V29.2233C7.94672 28.4152 8.60984 27.757 9.42392 27.757H58.5815C59.3955 27.757 60.0587 28.4152 60.0587 29.2233V68.1483C60.0587 68.9564 59.3955 69.6146 58.5815 69.6146ZM9.5587 68.0092H58.4413V29.3624H9.5587V68.0092Z" fill="white"/>
<path d="M39.987 36.6508H28.013C27.296 36.6508 26.7083 36.0247 26.7083 35.2541V33.9431C26.7083 33.1725 27.2906 32.5464 28.013 32.5464H39.987C40.704 32.5464 41.2917 33.1725 41.2917 33.9431V35.2541C41.2917 36.0247 40.7094 36.6508 39.987 36.6508ZM28.3257 35.0454H39.6743V34.1518H28.3257V35.0454Z" fill="white"/>
</g>
<defs>
<clipPath id="clip0_6_45">
<rect width="68" height="78" fill="white"/>
</clipPath>
</defs>
</svg>
