<svg width="68" height="78" viewBox="0 0 68 78" fill="none" xmlns="http://www.w3.org/2000/svg">
<g clip-path="url(#clip0_1548_1693)">
<path d="M65.9675 78H2.03251C0.911124 78 0 77.0956 0 75.9772V2.02278C0 0.904363 0.911124 0 2.03251 0H65.9621C67.0835 0 67.9946 0.904363 67.9946 2.02278V75.9826C67.9946 77.0956 67.0835 78.0054 65.9621 78.0054L65.9675 78ZM2.03251 1.60538C1.80068 1.60538 1.61738 1.79267 1.61738 2.02278V75.9826C1.61738 76.2127 1.80607 76.4 2.03251 76.4H65.9621C66.1939 76.4 66.3772 76.2127 66.3772 75.9826V2.02278C66.3772 1.79267 66.1885 1.60538 65.9621 1.60538H2.03251Z" fill="#154764"/>
<path d="M58.5491 25.7502H9.45084C8.62058 25.7502 7.94128 25.076 7.94128 24.2519V9.88373C7.94128 9.05963 8.62058 8.38538 9.45084 8.38538H58.5491C59.3793 8.38538 60.0586 9.05963 60.0586 9.88373V24.2519C60.0586 25.076 59.3793 25.7502 58.5491 25.7502ZM9.55866 24.1448H58.4412V9.99075H9.55866V24.1448Z" fill="#154764"/>
<path d="M43.238 22.7322H24.7621C23.9319 22.7322 23.2526 22.0633 23.2526 21.2338V12.8965C23.2526 12.0725 23.9319 11.3982 24.7621 11.3982H43.238C44.0682 11.3982 44.7475 12.0671 44.7475 12.8965V21.2338C44.7475 22.0579 44.0682 22.7322 43.238 22.7322ZM24.8699 21.1268H43.1302V13.0036H24.8699V21.1268Z" fill="#154764"/>
<path d="M51.4649 19.5H49.0119C48.2086 19.5 47.5563 18.8525 47.5563 18.0552V16.0806C47.5563 15.2832 48.2086 14.6357 49.0119 14.6357H51.4649C52.2682 14.6357 52.9206 15.2832 52.9206 16.0806V18.0552C52.9206 18.8525 52.2682 19.5 51.4649 19.5ZM49.1737 17.8947H51.2978V16.2465H49.1737V17.8947Z" fill="#154764"/>
<path d="M58.5815 69.6145H9.42398C8.6099 69.6145 7.94678 68.9563 7.94678 68.1483V29.2232C7.94678 28.4152 8.6099 27.757 9.42398 27.757H58.5815C59.3956 27.757 60.0587 28.4152 60.0587 29.2232V68.1483C60.0587 68.9563 59.3956 69.6145 58.5815 69.6145ZM9.55876 68.0092H58.4414V29.3623H9.55876V68.0092Z" fill="#154764"/>
<path d="M39.9871 36.6508H28.0131C27.296 36.6508 26.7084 36.0247 26.7084 35.2541V33.9431C26.7084 33.1725 27.2906 32.5464 28.0131 32.5464H39.9871C40.7041 32.5464 41.2917 33.1725 41.2917 33.9431V35.2541C41.2917 36.0247 40.7095 36.6508 39.9871 36.6508ZM28.3258 35.0454H39.6744V34.1518H28.3258V35.0454Z" fill="#154764"/>
</g>
<defs>
<clipPath id="clip0_1548_1693">
<rect width="68" height="78" fill="white"/>
</clipPath>
</defs>
</svg>
