<svg width="68" height="78" viewBox="0 0 68 78" fill="none" xmlns="http://www.w3.org/2000/svg">
<g clip-path="url(#clip0_10_24)">
<path d="M65.9675 78H2.03251C0.911124 78 0 77.0956 0 75.9772V2.02278C0 0.904363 0.911124 0 2.03251 0H65.9621C67.0835 0 67.9946 0.904363 67.9946 2.02278V75.9826C67.9946 77.0956 67.0835 78.0054 65.9621 78.0054L65.9675 78ZM2.03251 1.60538C1.80068 1.60538 1.61738 1.79267 1.61738 2.02278V75.9826C1.61738 76.2127 1.80607 76.4 2.03251 76.4H65.9621C66.1939 76.4 66.3772 76.2127 66.3772 75.9826V2.02278C66.3772 1.79267 66.1885 1.60538 65.9621 1.60538H2.03251Z" fill="white"/>
<path d="M58.5491 25.7503H9.4509C8.62065 25.7503 7.94135 25.076 7.94135 24.2519V9.88379C7.94135 9.0597 8.62065 8.38544 9.4509 8.38544H58.5491C59.3794 8.38544 60.0587 9.0597 60.0587 9.88379V24.2519C60.0587 25.076 59.3794 25.7503 58.5491 25.7503ZM9.55872 24.1449H58.4413V9.99082H9.55872V24.1449Z" fill="white"/>
<path d="M43.2379 22.7322H24.7621C23.9318 22.7322 23.2525 22.0633 23.2525 21.2338V12.8965C23.2525 12.0725 23.9318 11.3982 24.7621 11.3982H43.2379C44.0682 11.3982 44.7475 12.0671 44.7475 12.8965V21.2338C44.7475 22.0579 44.0682 22.7322 43.2379 22.7322ZM24.8699 21.1268H43.1301V13.0036H24.8699V21.1268Z" fill="white"/>
<path d="M51.465 19.5H49.012C48.2087 19.5 47.5563 18.8525 47.5563 18.0552V16.0805C47.5563 15.2832 48.2087 14.6357 49.012 14.6357H51.465C52.2683 14.6357 52.9206 15.2832 52.9206 16.0805V18.0552C52.9206 18.8525 52.2683 19.5 51.465 19.5ZM49.1737 17.8946H51.2979V16.2464H49.1737V17.8946Z" fill="white"/>
<path d="M58.5815 69.6146H9.42392C8.60984 69.6146 7.94672 68.9564 7.94672 68.1483V29.2233C7.94672 28.4152 8.60984 27.757 9.42392 27.757H58.5815C59.3955 27.757 60.0587 28.4152 60.0587 29.2233V68.1483C60.0587 68.9564 59.3955 69.6146 58.5815 69.6146ZM9.5587 68.0092H58.4413V29.3624H9.5587V68.0092Z" fill="white"/>
<path fill-rule="evenodd" clip-rule="evenodd" d="M34 41.4375C33.4773 41.4375 32.9759 41.6429 32.6063 42.0086C32.2366 42.3743 32.029 42.8703 32.029 43.3875V45.9875H37.285C37.8078 45.9875 38.3091 46.1929 38.6787 46.5586C39.0484 46.9243 39.256 47.4203 39.256 47.9375V51.8375C39.256 52.3547 39.0484 52.8507 38.6787 53.2164C38.3091 53.5821 37.8078 53.7875 37.285 53.7875H30.715C30.1922 53.7875 29.6909 53.5821 29.3213 53.2164C28.9516 52.8507 28.744 52.3547 28.744 51.8375V47.9375C28.744 47.4203 28.9516 46.9243 29.3213 46.5586C29.6909 46.1929 30.1922 45.9875 30.715 45.9875V43.3875C30.715 42.5255 31.0611 41.6989 31.6771 41.0894C32.2932 40.4799 33.1288 40.1375 34 40.1375C34.8712 40.1375 35.7068 40.4799 36.3229 41.0894C36.9389 41.6989 37.285 42.5255 37.285 43.3875C37.285 43.7465 36.9909 44.0375 36.628 44.0375C36.2652 44.0375 35.971 43.7465 35.971 43.3875C35.971 42.8703 35.7634 42.3743 35.3937 42.0086C35.0241 41.6429 34.5227 41.4375 34 41.4375ZM30.715 47.2875C30.5407 47.2875 30.3736 47.356 30.2504 47.4779C30.1272 47.5998 30.058 47.7651 30.058 47.9375V51.8375C30.058 52.0099 30.1272 52.1752 30.2504 52.2971C30.3736 52.419 30.5407 52.4875 30.715 52.4875H37.285C37.4593 52.4875 37.6264 52.419 37.7496 52.2971C37.8728 52.1752 37.942 52.0099 37.942 51.8375V47.9375C37.942 47.7651 37.8728 47.5998 37.7496 47.4779C37.6264 47.356 37.4593 47.2875 37.285 47.2875H30.715ZM33.0709 48.9683C33.3173 48.7245 33.6515 48.5875 34 48.5875C34.3485 48.5875 34.6827 48.7245 34.9291 48.9683C35.1756 49.2121 35.314 49.5427 35.314 49.8875C35.314 50.2323 35.1756 50.5629 34.9291 50.8067C34.6827 51.0505 34.3485 51.1875 34 51.1875C33.6515 51.1875 33.3173 51.0505 33.0709 50.8067C32.8244 50.5629 32.686 50.2323 32.686 49.8875C32.686 49.5427 32.8244 49.2121 33.0709 48.9683Z" fill="white"/>
</g>
<defs>
<clipPath id="clip0_10_24">
<rect width="68" height="78" fill="white"/>
</clipPath>
</defs>
</svg>
