<svg width="16" height="16" viewBox="0 0 16 16" fill="none" xmlns="http://www.w3.org/2000/svg">
<path fill-rule="evenodd" clip-rule="evenodd" d="M1.97848 7.99999C2.03452 8.092 2.10095 8.19771 2.17756 8.31423C2.46551 8.75213 2.8918 9.33415 3.44442 9.91309C4.56409 11.0861 6.10636 12.15 8.00002 12.15C9.89369 12.15 11.436 11.0861 12.5556 9.91309C13.1083 9.33415 13.5345 8.75213 13.8225 8.31423C13.8991 8.19771 13.9655 8.092 14.0216 7.99999C13.9655 7.90798 13.8991 7.80227 13.8225 7.68576C13.5345 7.24786 13.1083 6.66584 12.5556 6.0869C11.436 4.91392 9.89369 3.84999 8.00002 3.84999C6.10636 3.84999 4.56409 4.91392 3.44442 6.0869C2.8918 6.66584 2.46551 7.24786 2.17756 7.68576C2.10095 7.80227 2.03452 7.90798 1.97848 7.99999ZM15 7.99999C15.7575 7.61436 15.7572 7.61378 15.7572 7.61378L15.756 7.61135L15.7535 7.6065L15.7457 7.59145C15.7392 7.57907 15.7302 7.56204 15.7186 7.54067C15.6956 7.49794 15.6625 7.43779 15.6195 7.36271C15.5336 7.21267 15.4077 7.00232 15.2429 6.75173C14.9144 6.25213 14.4259 5.58415 13.7853 4.91309C12.5186 3.58607 10.5609 2.14999 8.00002 2.14999C5.43915 2.14999 3.48142 3.58607 2.21472 4.91309C1.57416 5.58415 1.08567 6.25213 0.757145 6.75173C0.592361 7.00232 0.46644 7.21267 0.380506 7.36271C0.337507 7.43779 0.304423 7.49794 0.2814 7.54067C0.269886 7.56204 0.260879 7.57907 0.254398 7.59145L0.246569 7.6065L0.244077 7.61135L0.243188 7.61309C0.243188 7.61309 0.242536 7.61436 1.00002 7.99999L0.242536 7.61436C0.119187 7.85665 0.119187 8.14333 0.242536 8.38562L1.00002 7.99999C0.242536 8.38562 0.242536 8.38562 0.242536 8.38562L0.244077 8.38864L0.246569 8.39348L0.254398 8.40854C0.260879 8.42092 0.269886 8.43795 0.2814 8.45932C0.304423 8.50205 0.337507 8.5622 0.380506 8.63728C0.46644 8.78732 0.592361 8.99767 0.757145 9.24826C1.08567 9.74786 1.57416 10.4158 2.21472 11.0869C3.48142 12.4139 5.43915 13.85 8.00002 13.85C10.5609 13.85 12.5186 12.4139 13.7853 11.0869C14.4259 10.4158 14.9144 9.74786 15.2429 9.24826C15.4077 8.99767 15.5336 8.78732 15.6195 8.63728C15.6625 8.5622 15.6956 8.50205 15.7186 8.45932C15.7302 8.43795 15.7392 8.42092 15.7457 8.40854L15.7535 8.39348L15.756 8.38864L15.7569 8.3869C15.7569 8.3869 15.7575 8.38562 15 7.99999ZM15 7.99999L15.7575 8.38562C15.8809 8.14333 15.8806 7.85607 15.7572 7.61378L15 7.99999Z" fill="#154764"/>
<path fill-rule="evenodd" clip-rule="evenodd" d="M8.00002 6.84999C7.3649 6.84999 6.85002 7.36487 6.85002 7.99999C6.85002 8.63512 7.3649 9.14999 8.00002 9.14999C8.63515 9.14999 9.15002 8.63512 9.15002 7.99999C9.15002 7.36487 8.63515 6.84999 8.00002 6.84999ZM5.15002 7.99999C5.15002 6.42598 6.42601 5.14999 8.00002 5.14999C9.57404 5.14999 10.85 6.42598 10.85 7.99999C10.85 9.57401 9.57404 10.85 8.00002 10.85C6.42601 10.85 5.15002 9.57401 5.15002 7.99999Z" fill="#154764"/>
</svg>
