<svg width="16" height="17" viewBox="0 0 16 17" fill="none" xmlns="http://www.w3.org/2000/svg">
<path d="M6.90002 4.5C7.20002 4.4 7.60002 4.4 8.00002 4.4C11.2 4.4 13.3 7.5 14 8.5C13.7 9 13.3 9.5 13 9.9C12.7 10.3 12.7 10.8 13.1 11.1C13.3 11.2 13.5 11.3 13.7 11.3C13.9 11.3 14.2 11.2 14.3 11C14.9 10.3 15.4 9.6 15.8 8.9C15.9 8.7 15.9 8.4 15.8 8.1C15.6 7.9 12.9 2.6 8.00002 2.6C7.50002 2.6 7.00002 2.7 6.50002 2.8C6.00002 2.9 5.70002 3.4 5.80002 3.8C5.90002 4.3 6.40002 4.6 6.90002 4.5Z" fill="#606D7F"/>
<path d="M12.5 11.8C12.5 11.7 12.4 11.7 12.4 11.6L8.60002 7.9L1.60002 0.900003C1.30002 0.600003 0.700018 0.600003 0.400018 0.900003C0.100018 1.2 0.100018 1.8 0.400018 2.1L3.00002 4.7C1.90002 5.7 1.00002 6.8 0.300018 8.1C0.200018 8.3 0.200018 8.6 0.300018 8.9C0.400018 9.1 3.10002 14.4 8.10002 14.4C9.40002 14.4 10.6 14 11.7 13.4L14.5 16.2C14.7 16.4 14.9 16.4 15.1 16.4C15.3 16.4 15.5 16.3 15.7 16.2C16 15.9 16 15.3 15.7 15L12.5 11.8ZM7.90002 9.6C7.80002 9.6 7.70002 9.5 7.60002 9.5C7.40002 9.4 7.30002 9.4 7.20002 9.3C7.10002 9.2 7.00002 9.1 7.00002 8.9C7.00002 8.8 6.90002 8.7 6.90002 8.6L7.90002 9.6ZM8.00002 12.6C4.80002 12.6 2.70002 9.5 2.00002 8.5C2.60002 7.5 3.30002 6.7 4.20002 5.9L5.60002 7.2C5.60002 7.3 5.50002 7.3 5.50002 7.4C5.30002 7.8 5.20002 8.1 5.20002 8.5C5.20002 8.9 5.30002 9.2 5.40002 9.6C5.50002 9.9 5.70002 10.2 6.00002 10.5C6.30002 10.8 6.60002 11 6.90002 11.1C7.20002 11.2 7.60002 11.3 8.00002 11.3C8.40002 11.3 8.70002 11.2 9.10002 11.1C9.20002 11.1 9.20002 11 9.30002 11L10.4 12.1C9.60002 12.4 8.80002 12.6 8.00002 12.6Z" fill="#606D7F"/>
</svg>
