<svg width="72" height="78" viewBox="0 0 72 78" fill="none" xmlns="http://www.w3.org/2000/svg">
<g clip-path="url(#clip0_1617_2727)">
<path d="M39.2231 25.2167H62.4867C67.1914 25.2167 71.0123 29.0982 71.0123 33.8775V77.023H39.2231V25.2167Z" stroke="#154764" stroke-width="1.8" stroke-linejoin="round"/>
<path d="M71.0123 59.807H39.2231V76.9966H71.0123V59.807Z" stroke="#154764" stroke-width="1.8" stroke-linejoin="round"/>
<path d="M44.9937 64.6392V71.0291C44.9937 71.6629 45.4615 72.1646 46.0594 72.1646H48.6326" stroke="#154764" stroke-width="1.8" stroke-linecap="square" stroke-linejoin="round"/>
<path d="M55.8063 72.191H53.4929C52.8431 72.191 52.3232 71.6893 52.3232 71.0555V65.7746C52.3232 65.1409 52.8431 64.6392 53.4929 64.6392H55.8063C56.4561 64.6392 56.976 65.1409 56.976 65.7746V71.0555C56.976 71.6893 56.4561 72.191 55.8063 72.191Z" stroke="#154764" stroke-width="1.8" stroke-linejoin="round"/>
<path d="M65.7357 64.6392H62.2527C61.6029 64.6392 61.083 65.1409 61.083 65.7746V71.0555C61.083 71.6893 61.6029 72.191 62.2527 72.191H65.7357V68.4151H64.3581" stroke="#154764" stroke-width="1.8" stroke-linecap="square" stroke-linejoin="round"/>
<path d="M39.2229 29.9168C27.5002 24.5302 32.2049 1.00342 32.2049 1.00342C2.885 16.9784 16.4532 42.6439 16.4532 42.6439C3.74277 40.7428 4.3406 27.2499 4.3406 27.2499C-6.29045 56.3216 10.6309 70.9499 23.1074 74.6202C31.3731 77.0495 39.2229 77.0231 39.2229 77.0231" stroke="#154764" stroke-width="1.8" stroke-linejoin="round"/>
<path d="M44.188 25.2166C44.188 25.2166 46.6053 18.0609 42.9663 11.4069C42.9663 11.4069 55.1049 16.2918 56.4046 25.2166" stroke="#154764" stroke-width="1.8" stroke-linejoin="round"/>
<path d="M39.2232 40.2146C31.3994 40.2146 25.0571 46.6574 25.0571 54.6053C25.0571 62.5531 31.3994 68.9959 39.2232 68.9959" stroke="#154764" stroke-width="1.8" stroke-linejoin="round"/>
<path d="M19.5205 54.6052C19.5205 65.6689 28.3321 74.6201 39.223 74.6201" stroke="#154764" stroke-width="1.8" stroke-linejoin="round"/>
<path d="M39.2232 51.0934C37.3257 51.0934 35.7661 52.6513 35.7661 54.6052C35.7661 56.5592 37.2997 58.1171 39.2232 58.1171" stroke="#154764" stroke-width="1.8" stroke-linejoin="round"/>
<path d="M19.5207 54.6317C20.7122 54.6317 21.6781 53.6505 21.6781 52.4401C21.6781 51.2297 20.7122 50.2485 19.5207 50.2485C18.3292 50.2485 17.3633 51.2297 17.3633 52.4401C17.3633 53.6505 18.3292 54.6317 19.5207 54.6317Z" stroke="#154764" stroke-width="1.8" stroke-linejoin="round"/>
</g>
<defs>
<clipPath id="clip0_1617_2727">
<rect width="72" height="78" fill="white"/>
</clipPath>
</defs>
</svg>
