<svg width="30" height="57" viewBox="0 0 30 57" fill="none" xmlns="http://www.w3.org/2000/svg">
<path d="M29.4102 20.0339C29.3245 17.0348 28.3562 14.0529 26.6767 11.5765C25.8113 10.2997 24.7659 9.2115 23.6433 8.17467C21.3897 6.10101 19.1276 4.01878 16.874 1.94513C16.1713 1.29389 15.4687 0.651232 14.7575 0C11.9469 2.58779 9.1363 5.17558 6.32572 7.76337C5.98296 8.08041 5.64878 8.38889 5.30602 8.70594C3.7722 10.1284 2.52972 11.825 1.62999 13.7101C0.498902 16.0837 0.104736 18.6201 0.104736 21.225C0.104736 25.578 0.104736 29.9224 0.104736 34.2754C0.104736 36.3233 0.139009 38.3284 0.704552 40.325C1.57001 43.3498 3.30948 45.9375 5.60593 48.0541C8.57075 50.7875 11.5356 53.5124 14.5004 56.2459C14.5861 56.323 14.6718 56.4001 14.7575 56.4772C16.4369 54.9263 18.1164 53.3839 19.7959 51.8329C20.8842 50.8303 21.981 49.8278 23.0692 48.8252C23.789 48.1654 24.5259 47.5142 25.1857 46.7944C26.968 44.8493 28.2619 42.4672 28.9217 39.9051C29.2902 38.4569 29.4102 36.9917 29.4102 35.5093C29.4102 32.7758 29.4102 30.0338 29.4102 27.3003C29.4102 25.0296 29.4273 22.7674 29.4102 20.4967C29.4102 20.3424 29.4016 20.1882 29.4102 20.0339ZM3.84932 20.0254C3.8836 19.1085 4.02069 18.1916 4.26062 17.3005L12.8723 25.3295V33.667C11.7069 32.5873 10.533 31.5162 9.36765 30.4365C7.79098 28.9884 6.24859 27.5831 5.23747 25.6465C4.34631 23.9585 3.78077 21.9619 3.84932 20.0254ZM16.6255 25.3381L25.2286 17.2748C26.2654 21.0279 25.2029 25.0467 22.6836 27.9858C21.3983 29.4854 19.7959 30.7536 18.3478 32.0903C17.7737 32.6216 17.1996 33.1528 16.6255 33.6755V25.3381ZM22.1267 11.9021C22.6665 12.4505 23.1549 13.0503 23.5834 13.693L16.6255 20.2139V6.81223C18.1421 8.20895 21.8267 11.5936 22.1267 11.9021ZM12.8809 6.81223V20.2225L5.90584 13.7187C6.71988 12.5019 7.75671 11.5337 8.81924 10.5482C9.89035 9.56282 10.97 8.56884 12.0411 7.58342C12.3153 7.32636 12.5981 7.06929 12.8809 6.81223ZM21.6639 45.0207L14.7489 51.3873C12.6581 49.4679 10.5759 47.5485 8.48506 45.6205C7.07977 44.3266 5.83729 42.9384 5.00611 41.1904C4.36345 39.8451 3.96928 38.3798 3.85789 36.8974C3.81504 36.2719 3.82362 35.6464 3.82362 35.0123C3.82362 33.4185 3.82362 31.8332 3.82362 30.2394C5.05753 31.7133 6.58278 32.9729 7.98807 34.2668C9.79609 35.9291 11.6041 37.6001 13.4207 39.2624C13.8577 39.6652 14.2947 40.0679 14.7403 40.4792C15.9142 39.3995 17.0882 38.3198 18.2621 37.2402C19.9844 35.6549 21.7068 34.0611 23.4377 32.4759C24.2089 31.7647 24.9801 31.0535 25.657 30.2394C25.657 31.6876 25.657 33.1443 25.657 34.5924C25.657 35.1065 25.6656 35.6292 25.657 36.1519C25.6399 37.7286 25.3057 39.2967 24.6887 40.7448C24.0032 42.3643 22.9578 43.8296 21.6639 45.0207Z" fill="#83CC54"/>
</svg>
