<svg width="175" height="40" viewBox="0 0 175 40" fill="none" xmlns="http://www.w3.org/2000/svg">
<g clip-path="url(#clip0_1513_1335)">
<path d="M21.5474 39.4404H15.2644L14.1757 31.721H6.92068L5.83204 39.4404H0L6.51633 0H15.0311L21.5474 39.4404ZM10.5132 6.47758L7.71384 26.3626H13.3748L10.521 6.47758H10.5132Z" fill="white"/>
<path d="M34.4012 10.1418C35.0855 10.1418 35.661 10.2568 36.1197 10.4791V16.2821C35.661 16.1671 35.1477 16.1135 34.5801 16.1135C31.1508 16.1135 29.4401 18.3672 29.4401 22.8747V39.4404H23.3826V10.7014H28.6392L28.7558 15.5462C29.5568 11.9433 31.4386 10.1342 34.4168 10.1342L34.4012 10.1418Z" fill="white"/>
<path d="M48.9736 10.1418C53.3904 10.1418 55.6065 12.9398 55.6065 18.5358V31.606C55.6065 37.202 53.3981 40 48.9736 40C47.5661 40 46.3375 39.6167 45.2877 38.8425C44.238 38.0759 43.4681 36.995 42.9705 35.5998L42.1695 39.4327H37.7683V0H43.8258V12.7865C45.0855 11.0234 46.7963 10.1418 48.9658 10.1418H48.9736ZM49.549 31.2074V18.9268C49.549 16.5964 48.6936 15.4312 46.9751 15.4312C44.8756 15.4312 43.8336 16.972 43.8336 20.0537V30.0805C43.8336 33.1621 44.8834 34.703 46.9751 34.703C48.6936 34.703 49.549 33.5378 49.549 31.2074Z" fill="white"/>
<path d="M58.1726 30.6478V19.4941C58.1726 16.4891 58.9424 14.1817 60.4899 12.5642C62.0295 10.9467 64.2302 10.1418 67.0917 10.1418C69.9533 10.1418 72.1462 10.9467 73.6936 12.5642C75.2333 14.1817 76.0109 16.4891 76.0109 19.4941V30.6478C76.0109 33.6527 75.241 35.9601 73.6936 37.5776C72.1539 39.1951 69.9533 40 67.0917 40C64.2302 40 62.0373 39.1951 60.4899 37.5776C58.9502 35.9601 58.1726 33.6527 58.1726 30.6478ZM69.9455 31.2074V18.9268C69.9455 16.5964 68.9891 15.4312 67.0917 15.4312C65.1944 15.4312 64.2379 16.5964 64.2379 18.9268V31.2074C64.2379 33.5378 65.1866 34.703 67.0917 34.703C68.9969 34.703 69.9455 33.5378 69.9455 31.2074Z" fill="white"/>
<path d="M90.0078 10.1418C90.6921 10.1418 91.2675 10.2568 91.7263 10.4791V16.2821C91.2675 16.1671 90.7543 16.1135 90.1866 16.1135C86.7574 16.1135 85.0466 18.3672 85.0466 22.8747V39.4404H78.9891V10.7014H84.2457L84.3624 15.5462C85.1633 11.9433 87.0451 10.1342 90.0233 10.1342L90.0078 10.1418Z" fill="white"/>
<path d="M106.423 39.4404H98.0793L94.028 0H100.086L102.939 30.8701L105.972 0H112.83L115.855 30.8701L118.709 0H124.137L120.078 39.4404H112.247L109.331 12.3419L106.415 39.4404H106.423Z" fill="white"/>
<path d="M132.255 6.5389H126.198V0H132.255V6.5389ZM132.255 39.4404H126.198V10.7014H132.255V39.4327V39.4404Z" fill="white"/>
<path d="M146.998 10.1418C151.345 10.1418 153.515 12.9398 153.515 18.5358V39.4404H147.457V19.2181C147.457 16.7037 146.617 15.4465 144.946 15.4465C142.885 15.4465 141.858 16.9874 141.858 20.069V39.4481H135.801V10.7014H141.058L141.174 14.0284C142.278 11.4373 144.222 10.1418 147.006 10.1418H146.998Z" fill="white"/>
<path d="M175 39.4404H169.456C169.23 38.9881 169.059 37.8613 168.942 36.0598C167.877 38.6892 165.91 40 163.056 40C158.678 40 156.485 37.202 156.485 31.606V18.5358C156.485 12.9398 158.678 10.1418 163.056 10.1418C165.264 10.1418 166.998 11.0234 168.258 12.7865V0H174.316V31.1537C174.316 34.7949 174.541 37.5546 175 39.4327V39.4404ZM165.117 34.703C167.208 34.703 168.258 33.1621 168.258 30.0805V20.0537C168.258 16.972 167.208 15.4312 165.117 15.4312C163.398 15.4312 162.543 16.5964 162.543 18.9268V31.2074C162.543 33.5378 163.398 34.703 165.117 34.703Z" fill="white"/>
</g>
<defs>
<clipPath id="clip0_1513_1335">
<rect width="175" height="40" fill="white"/>
</clipPath>
</defs>
</svg>
