<svg width="38" height="30" viewBox="0 0 38 30" fill="none" xmlns="http://www.w3.org/2000/svg">
<path fill-rule="evenodd" clip-rule="evenodd" d="M5.66665 3.33333C4.75379 3.33333 3.99998 4.08714 3.99998 5V25C3.99998 25.9129 4.75379 26.6667 5.66665 26.6667H32.3333C33.2462 26.6667 34 25.9129 34 25V5C34 4.08714 33.2462 3.33333 32.3333 3.33333H5.66665ZM0.666647 5C0.666647 2.24619 2.91284 0 5.66665 0H32.3333C35.0871 0 37.3333 2.24619 37.3333 5V25C37.3333 27.7538 35.0871 30 32.3333 30H5.66665C2.91284 30 0.666647 27.7538 0.666647 25V5Z" fill="#8BC755"/>
<path fill-rule="evenodd" clip-rule="evenodd" d="M0.967927 4.04423C1.49578 3.29015 2.535 3.10676 3.28908 3.63461L19 14.6322L34.7109 3.63461C35.465 3.10676 36.5042 3.29015 37.032 4.04423C37.5599 4.79831 37.3765 5.83753 36.6224 6.36539L19.9558 18.0321C19.3819 18.4338 18.6181 18.4338 18.0442 18.0321L1.37754 6.36539C0.623461 5.83753 0.44007 4.79831 0.967927 4.04423Z" fill="#8BC755"/>
</svg>
