<svg width="16" height="17" viewBox="0 0 16 17" fill="none" xmlns="http://www.w3.org/2000/svg">
<path fill-rule="evenodd" clip-rule="evenodd" d="M6.37378 3.4595L7.37378 4.4595C7.56132 4.64704 7.66667 4.90139 7.66667 5.16661V7.16661C7.66667 7.7189 7.21896 8.16661 6.66667 8.16661H4.66667C4.40146 8.16661 4.1471 8.06125 3.95957 7.87372L2.95956 6.87372C2.96632 6.93741 2.97514 7.00102 2.98602 7.06444C3.09093 7.67589 3.38282 8.23978 3.82149 8.67846C4.26017 9.11713 4.82406 9.40902 5.43551 9.51393C6.04696 9.61884 6.67589 9.5316 7.23571 9.26424C7.61812 9.08161 8.07412 9.15984 8.37378 9.4595L12.3738 13.4595C12.4515 13.5372 12.5568 13.5808 12.6667 13.5808C12.7765 13.5808 12.8819 13.5372 12.9596 13.4595C13.0372 13.3818 13.0809 13.2765 13.0809 13.1666C13.0809 13.0568 13.0372 12.9514 12.9596 12.8737L8.95957 8.87372C8.65991 8.57406 8.58167 8.11805 8.7643 7.73565C9.03167 7.17583 9.1189 6.5469 9.01399 5.93545C8.90908 5.324 8.61719 4.76011 8.17852 4.32143C7.73984 3.88276 7.17595 3.59087 6.5645 3.48596C6.50108 3.47508 6.43748 3.46626 6.37378 3.4595ZM3.90237 1.93091C4.8354 1.4853 5.88362 1.33991 6.90271 1.51476C7.92179 1.68961 8.8616 2.17609 9.59273 2.90722C10.3239 3.63835 10.8103 4.57816 10.9852 5.59724C11.1188 6.37587 11.0654 7.17151 10.8341 7.91979L14.3738 11.4595C14.8265 11.9123 15.0809 12.5263 15.0809 13.1666C15.0809 13.8069 14.8265 14.421 14.3738 14.8737C13.921 15.3265 13.307 15.5808 12.6667 15.5808C12.0264 15.5808 11.4123 15.3265 10.9596 14.8737L7.41985 11.334C6.67157 11.5654 5.87593 11.6187 5.0973 11.4851C4.07822 11.3103 3.13841 10.8238 2.40728 10.0927C1.67615 9.36154 1.18967 8.42173 1.01482 7.40264C0.839975 6.38356 0.985364 5.33534 1.43097 4.40231C1.57088 4.10937 1.84428 3.90258 2.16424 3.84768C2.4842 3.79278 2.81089 3.89662 3.04045 4.12617L5.08089 6.16661H5.66667V5.58082L3.62623 3.54038C3.39668 3.31083 3.29284 2.98414 3.34774 2.66418C3.40264 2.34422 3.60943 2.07081 3.90237 1.93091Z" fill="#366F93"/>
</svg>
