<svg width="16" height="16" viewBox="0 0 16 16" fill="none" xmlns="http://www.w3.org/2000/svg">
<path d="M3.88068 3.27338C6.47934 1.43005 10.1933 1.58072 12.596 3.63072C15.0407 5.71538 15.3747 9.12272 13.364 11.5621C11.4693 13.8601 8.05401 14.6174 5.21001 13.4321L5.05534 13.3647L2.13868 13.9854L2.08868 13.9941L2.01534 14.0001L1.94001 13.9974L1.91068 13.9941L1.83734 13.9807L1.76734 13.9581L1.70068 13.9287L1.65001 13.9007L1.57801 13.8494L1.52401 13.8001L1.47534 13.7447L1.44001 13.6947L1.39668 13.6181L1.36868 13.5474L1.34801 13.4721L1.33934 13.4221L1.33334 13.3487L1.33601 13.2734L1.33934 13.2441L1.35268 13.1707L1.36734 13.1227L2.13401 10.8221L2.11934 10.7981C0.64601 8.30005 1.31334 5.20338 3.72668 3.38605L3.88001 3.27405L3.88068 3.27338Z" fill="#606D7F"/>
</svg>
