<svg width="24" height="24" viewBox="0 0 24 24" fill="none" xmlns="http://www.w3.org/2000/svg">
<rect width="24" height="24" rx="8" fill="#EAEEF6"/>
<path d="M13.49 16.6667C14.0667 16.6667 14.3714 17.3493 13.9867 17.7787C13.7368 18.0583 13.4306 18.282 13.0883 18.435C12.7459 18.588 12.375 18.667 12 18.6667C11.625 18.667 11.2541 18.588 10.9118 18.435C10.5694 18.282 10.2632 18.0583 10.0134 17.7787C9.64535 17.368 9.90802 16.726 10.436 16.6713L10.5094 16.6673L13.49 16.6667Z" fill="#ACB5BF"/>
<path d="M12 5.33334C12.9053 5.33334 13.6707 5.93534 13.9167 6.76067L13.9473 6.87467L13.9527 6.90334C14.6876 7.31794 15.3139 7.90074 15.7801 8.604C16.2464 9.30727 16.5395 10.111 16.6353 10.9493L16.654 11.1407L16.6667 11.3333V13.2873L16.6807 13.378C16.772 13.8692 17.0438 14.3085 17.4427 14.6093L17.554 14.6873L17.662 14.7533C18.2353 15.078 18.0353 15.9307 17.4107 15.996L17.3333 16H6.66667C5.98134 16 5.742 15.0907 6.338 14.7533C6.59202 14.6096 6.8115 14.412 6.98103 14.1744C7.15056 13.9368 7.26603 13.665 7.31934 13.378L7.33334 13.2827L7.334 11.3027C7.37465 10.4319 7.62811 9.58441 8.07219 8.83431C8.51628 8.08422 9.13745 7.45441 9.88134 7L10.0467 6.90267L10.0533 6.874C10.1476 6.47535 10.362 6.11523 10.6674 5.84223C10.9728 5.56923 11.3546 5.39649 11.7613 5.34734L11.8827 5.336L12 5.33334Z" fill="#ACB5BF"/>
</svg>
