<svg width="32" height="32" viewBox="0 0 32 32" fill="none" xmlns="http://www.w3.org/2000/svg">
<path d="M11.9998 5.33337H9.33317C8.62593 5.33337 7.94765 5.61433 7.44755 6.11442C6.94746 6.61452 6.6665 7.2928 6.6665 8.00004V24C6.6665 24.7073 6.94746 25.3856 7.44755 25.8857C7.94765 26.3858 8.62593 26.6667 9.33317 26.6667H11.9998C12.7071 26.6667 13.3854 26.3858 13.8855 25.8857C14.3856 25.3856 14.6665 24.7073 14.6665 24V8.00004C14.6665 7.2928 14.3856 6.61452 13.8855 6.11442C13.3854 5.61433 12.7071 5.33337 11.9998 5.33337Z" fill="white"/>
<path d="M22.6665 5.33337H19.9998C19.2926 5.33337 18.6143 5.61433 18.1142 6.11442C17.6141 6.61452 17.3332 7.2928 17.3332 8.00004V24C17.3332 24.7073 17.6141 25.3856 18.1142 25.8857C18.6143 26.3858 19.2926 26.6667 19.9998 26.6667H22.6665C23.3737 26.6667 24.052 26.3858 24.5521 25.8857C25.0522 25.3856 25.3332 24.7073 25.3332 24V8.00004C25.3332 7.2928 25.0522 6.61452 24.5521 6.11442C24.052 5.61433 23.3737 5.33337 22.6665 5.33337Z" fill="white"/>
<path d="M11.9998 5.33337H9.33317C8.62593 5.33337 7.94765 5.61433 7.44755 6.11442C6.94746 6.61452 6.6665 7.2928 6.6665 8.00004V24C6.6665 24.7073 6.94746 25.3856 7.44755 25.8857C7.94765 26.3858 8.62593 26.6667 9.33317 26.6667H11.9998C12.7071 26.6667 13.3854 26.3858 13.8855 25.8857C14.3856 25.3856 14.6665 24.7073 14.6665 24V8.00004C14.6665 7.2928 14.3856 6.61452 13.8855 6.11442C13.3854 5.61433 12.7071 5.33337 11.9998 5.33337Z" stroke="white"/>
<path d="M22.6665 5.33337H19.9998C19.2926 5.33337 18.6143 5.61433 18.1142 6.11442C17.6141 6.61452 17.3332 7.2928 17.3332 8.00004V24C17.3332 24.7073 17.6141 25.3856 18.1142 25.8857C18.6143 26.3858 19.2926 26.6667 19.9998 26.6667H22.6665C23.3737 26.6667 24.052 26.3858 24.5521 25.8857C25.0522 25.3856 25.3332 24.7073 25.3332 24V8.00004C25.3332 7.2928 25.0522 6.61452 24.5521 6.11442C24.052 5.61433 23.3737 5.33337 22.6665 5.33337Z" stroke="white"/>
</svg>
