<svg width="32" height="32" viewBox="0 0 32 32" fill="none" xmlns="http://www.w3.org/2000/svg">
<path d="M8 5.33334V26.6667C7.99993 26.9039 8.06317 27.1369 8.18318 27.3415C8.30318 27.5462 8.47562 27.7151 8.6827 27.8309C8.88978 27.9466 9.12399 28.005 9.36118 28.0001C9.59837 27.9951 9.82994 27.927 10.032 27.8027L27.3653 17.136C27.5595 17.0167 27.7198 16.8497 27.831 16.6508C27.9422 16.4519 28.0006 16.2279 28.0006 16C28.0006 15.7722 27.9422 15.5481 27.831 15.3492C27.7198 15.1504 27.5595 14.9833 27.3653 14.864L10.032 4.19734C9.82994 4.07303 9.59837 4.00488 9.36118 3.99992C9.12399 3.99497 8.88978 4.05339 8.6827 4.16916C8.47562 4.28492 8.30318 4.45385 8.18318 4.65849C8.06317 4.86314 7.99993 5.0961 8 5.33334Z" fill="#ACB5BF"/>
</svg>
