<svg width="24" height="24" viewBox="0 0 24 24" fill="none" xmlns="http://www.w3.org/2000/svg">
<path fill-rule="evenodd" clip-rule="evenodd" d="M7.42509 4.23531C9.15344 3.23682 11.1621 2.83429 13.1418 3.08973C15.1214 3.34516 16.9621 4.24439 18.3804 5.6489C19.7987 7.0534 20.7159 8.88526 20.9906 10.8623C21.0666 11.4093 20.6848 11.9144 20.1378 11.9904C19.5907 12.0665 19.0857 11.6846 19.0096 11.1376C18.7953 9.59508 18.0797 8.16582 16.9731 7.07C15.8665 5.97417 14.4304 5.27258 12.8858 5.07328C11.3413 4.87399 9.77405 5.18805 8.42556 5.96709C7.53828 6.47968 6.77809 7.17486 6.19127 7.99995H8.00012C8.55241 7.99995 9.00012 8.44767 9.00012 8.99995C9.00012 9.55224 8.55241 9.99995 8.00012 9.99995H4.52249C4.50734 10.0003 4.49216 10.0003 4.47695 9.99995H4.00012C3.44784 9.99995 3.00012 9.55224 3.00012 8.99995V4.99995C3.00012 4.44767 3.44784 3.99995 4.00012 3.99995C4.55241 3.99995 5.00012 4.44767 5.00012 4.99995V6.27281C5.67868 5.46243 6.49773 4.77106 7.42509 4.23531ZM3.86247 12.0095C4.4095 11.9334 4.91458 12.3153 4.9906 12.8623C5.20497 14.4048 5.92056 15.8341 7.02713 16.9299C8.13371 18.0257 9.56988 18.7273 11.1144 18.9266C12.659 19.1259 14.2262 18.8118 15.5747 18.0328C16.462 17.5202 17.2222 16.825 17.809 15.9999H16.0001C15.4478 15.9999 15.0001 15.5522 15.0001 14.9999C15.0001 14.4477 15.4478 13.9999 16.0001 13.9999H19.4778C19.4929 13.9996 19.5081 13.9996 19.5233 13.9999H20.0001C20.5524 13.9999 21.0001 14.4477 21.0001 14.9999V18.9999C21.0001 19.5522 20.5524 19.9999 20.0001 19.9999C19.4478 19.9999 19.0001 19.5522 19.0001 18.9999V17.7271C18.3216 18.5375 17.5025 19.2288 16.5752 19.7646C14.8468 20.7631 12.8381 21.1656 10.8585 20.9102C8.87885 20.6547 7.03812 19.7555 5.61984 18.351C4.20155 16.9465 3.28439 15.1146 3.00964 13.1376C2.93362 12.5906 3.31545 12.0855 3.86247 12.0095Z" fill="#154764"/>
</svg>
