<svg width="138" height="158" viewBox="0 0 138 158" fill="none" xmlns="http://www.w3.org/2000/svg">
<g clip-path="url(#clip0_1585_1992)">
<rect x="2" y="12" width="134" height="144" rx="19" fill="white"/>
<path d="M8.00004 152L1.50004 140.5L1.50003 109C12.5 116 31 116.615 49 109C61.5 103.712 79.5 106.5 90.5 111.5L74 145L68 152L59 157H18.5L8.00004 152Z" fill="#ED4747"/>
<path d="M56.2624 158H20.2545C9.08195 158 0 148.788 0 137.48V30.4496C0 19.1308 9.09338 9.92998 20.2545 9.92998H117.746C128.918 9.92998 138 19.1424 138 30.4496V84.2775C138 95.5962 128.918 104.797 117.746 104.797H106.185C99.9015 104.797 94.1896 108.304 91.2765 113.94L74.2093 146.982C70.7021 153.776 63.825 157.988 56.2624 157.988V158ZM20.2545 13.402C10.9783 13.402 3.42715 21.052 3.42715 30.4496V137.48C3.42715 146.878 10.9783 154.528 20.2545 154.528H56.2624C62.5455 154.528 68.2574 151.021 71.1705 145.385L88.2377 112.343C91.7449 105.549 98.622 101.337 106.185 101.337H117.746C127.022 101.337 134.573 93.6866 134.573 84.289V30.4496C134.573 21.052 127.022 13.402 117.746 13.402H20.2545Z" fill="#154764"/>
<path d="M121.127 158H48.4942V154.528H121.127C128.541 154.528 134.573 148.417 134.573 140.906V84.2775H138V140.906C138 150.338 130.426 158 121.127 158Z" fill="#154764"/>
<path d="M111.897 145.651C103.763 145.651 97.1369 138.939 97.1369 130.698C97.1369 122.458 103.763 115.746 111.897 115.746C120.03 115.746 126.656 122.458 126.656 130.698C126.656 138.939 120.03 145.651 111.897 145.651ZM111.897 119.218C105.648 119.218 100.564 124.368 100.564 130.698C100.564 137.029 105.648 142.179 111.897 142.179C118.145 142.179 123.229 137.029 123.229 130.698C123.229 124.368 118.145 119.218 111.897 119.218Z" fill="#154764"/>
<path d="M111.897 138.8C107.487 138.8 103.9 135.166 103.9 130.698C103.9 126.231 107.487 122.597 111.897 122.597C116.306 122.597 119.893 126.231 119.893 130.698C119.893 135.166 116.306 138.8 111.897 138.8ZM111.897 126.057C109.372 126.057 107.327 128.141 107.327 130.687C107.327 133.233 109.383 135.316 111.897 135.316C114.41 135.316 116.466 133.233 116.466 130.687C116.466 128.141 114.41 126.057 111.897 126.057Z" fill="#154764"/>
<path d="M54.3775 13.402H24.9954C24.0472 13.402 23.2818 12.6266 23.2818 11.666V1.73601C23.2818 0.775418 24.0472 0 24.9954 0H54.3775C55.3257 0 56.0911 0.775418 56.0911 1.73601V11.666C56.0911 12.6266 55.3257 13.402 54.3775 13.402ZM26.709 9.92997H52.6639V3.47202H26.709V9.92997Z" fill="#154764"/>
<path d="M32.5923 45.472H1.71362V48.944H32.5923V45.472Z" fill="#154764"/>
<path d="M16.0848 60.944H1.71362V64.416H16.0848V60.944Z" fill="#154764"/>
<path d="M16.0848 30H1.71362V33.472H16.0848V30Z" fill="#154764"/>
<path d="M32.5923 76.416H1.71362V79.8881H32.5923V76.416Z" fill="#154764"/>
<path d="M16.0848 91.8881H1.71362V95.3601H16.0848V91.8881Z" fill="#154764"/>
<path d="M32.5923 107.36H1.71362V110.832H32.5923V107.36Z" fill="#154764"/>
<path d="M16.0848 122.832H1.71362V126.304H16.0848V122.832Z" fill="#154764"/>
</g>
<defs>
<clipPath id="clip0_1585_1992">
<rect width="138" height="158" fill="white"/>
</clipPath>
</defs>
</svg>
