<svg width="68" height="78" viewBox="0 0 68 78" fill="none" xmlns="http://www.w3.org/2000/svg">
<g clip-path="url(#clip0_9_18)">
<rect x="0.985504" y="5.92406" width="66.029" height="71.0886" rx="8" fill="white"/>
<path d="M27.7235 78H9.98046C4.47517 78 0 73.4521 0 67.8701V15.0321C0 9.44434 4.48079 4.90215 9.98046 4.90215H58.0195C63.5248 4.90215 68 9.45005 68 15.0321V41.6053C68 47.1931 63.5248 51.7353 58.0195 51.7353H52.3228C49.2268 51.7353 46.4123 53.4665 44.9768 56.2489L36.5669 72.5608C34.8387 75.9146 31.45 77.9943 27.7235 77.9943V78ZM9.98046 6.61618C5.4096 6.61618 1.68874 10.3928 1.68874 15.0321V67.8701C1.68874 72.5094 5.4096 76.286 9.98046 76.286H27.7235C30.8195 76.286 33.6341 74.5548 35.0695 71.7723L43.4795 55.4605C45.2076 52.1067 48.5964 50.027 52.3228 50.027H58.0195C62.5904 50.027 66.3113 46.2504 66.3113 41.6111V15.0321C66.3113 10.3928 62.5904 6.61618 58.0195 6.61618H9.98046Z" fill="#154764"/>
<path d="M59.6858 78H23.8957V76.286H59.6858C63.3391 76.286 66.3113 73.2693 66.3113 69.5612V41.6053H68V69.5612C68 74.2177 64.2679 78 59.6858 78Z" fill="#154764"/>
<path d="M55.1374 71.9037C51.1295 71.9037 47.8646 68.5899 47.8646 64.522C47.8646 60.454 51.1295 57.1402 55.1374 57.1402C59.1454 57.1402 62.4103 60.454 62.4103 64.522C62.4103 68.5899 59.1454 71.9037 55.1374 71.9037ZM55.1374 58.8542C52.0583 58.8542 49.5533 61.3967 49.5533 64.522C49.5533 67.6472 52.0583 70.1897 55.1374 70.1897C58.2165 70.1897 60.7215 67.6472 60.7215 64.522C60.7215 61.3967 58.2165 58.8542 55.1374 58.8542Z" fill="#154764"/>
<path d="M55.1374 68.5214C52.9646 68.5214 51.197 66.7274 51.197 64.522C51.197 62.3166 52.9646 60.5226 55.1374 60.5226C57.3103 60.5226 59.0778 62.3166 59.0778 64.522C59.0778 66.7274 57.3103 68.5214 55.1374 68.5214ZM55.1374 62.2309C53.8934 62.2309 52.8858 63.2593 52.8858 64.5163C52.8858 65.7732 53.899 66.8016 55.1374 66.8016C56.3758 66.8016 57.3891 65.7732 57.3891 64.5163C57.3891 63.2593 56.3758 62.2309 55.1374 62.2309Z" fill="#154764"/>
<path d="M26.7947 6.61617H12.3165C11.8493 6.61617 11.4722 6.23337 11.4722 5.75916V0.857017C11.4722 0.382801 11.8493 0 12.3165 0H26.7947C27.2619 0 27.6391 0.382801 27.6391 0.857017V5.75916C27.6391 6.23337 27.2619 6.61617 26.7947 6.61617ZM13.1609 4.90214H19.5556H25.9503V1.71403H13.1609V4.90214Z" fill="#154764"/>
<path d="M16.06 22.4482H0.844391V24.1622H16.06V22.4482Z" fill="#154764"/>
<path d="M7.92585 30.0863H0.844391V31.8003H7.92585V30.0863Z" fill="#154764"/>
<path d="M7.92585 14.8101H0.844391V16.5242H7.92585V14.8101Z" fill="#154764"/>
<path d="M16.06 37.7244H0.844391V39.4384H16.06V37.7244Z" fill="#154764"/>
<path d="M7.92585 45.3625H0.844391V47.0765H7.92585V45.3625Z" fill="#154764"/>
<path d="M16.06 53.0005H0.844391V54.7146H16.06V53.0005Z" fill="#154764"/>
<path d="M7.92585 60.6386H0.844391V62.3527H7.92585V60.6386Z" fill="#154764"/>
</g>
<defs>
<clipPath id="clip0_9_18">
<rect width="68" height="78" fill="white"/>
</clipPath>
</defs>
</svg>
