<svg width="16" height="16" viewBox="0 0 16 16" fill="none" xmlns="http://www.w3.org/2000/svg">
<path d="M12.6667 2C13.1768 1.99997 13.6677 2.19488 14.0389 2.54486C14.41 2.89483 14.6334 3.3734 14.6633 3.88267L14.6667 4V12C14.6667 12.5101 14.4718 13.001 14.1218 13.3722C13.7718 13.7433 13.2933 13.9667 12.784 13.9967L12.6667 14H3.33334C2.8232 14 2.33233 13.8051 1.96117 13.4551C1.59001 13.1052 1.36661 12.6266 1.33668 12.1173L1.33334 12V4C1.33332 3.48986 1.52823 2.99899 1.8782 2.62783C2.22817 2.25666 2.70675 2.03326 3.21601 2.00333L3.33334 2H12.6667ZM11.3333 10H4.66668L4.58868 10.0047C4.42664 10.0239 4.27731 10.102 4.16895 10.224C4.0606 10.346 4.00075 10.5035 4.00075 10.6667C4.00075 10.8298 4.0606 10.9874 4.16895 11.1094C4.27731 11.2314 4.42664 11.3094 4.58868 11.3287L4.66668 11.3333H11.3333L11.4113 11.3287C11.5734 11.3094 11.7227 11.2314 11.8311 11.1094C11.9394 10.9874 11.9993 10.8298 11.9993 10.6667C11.9993 10.5035 11.9394 10.346 11.8311 10.224C11.7227 10.102 11.5734 10.0239 11.4113 10.0047L11.3333 10ZM11.3333 7.33333H4.66668L4.58868 7.338C4.42664 7.35727 4.27731 7.4353 4.16895 7.55731C4.0606 7.67932 4.00075 7.83682 4.00075 8C4.00075 8.16318 4.0606 8.32068 4.16895 8.44269C4.27731 8.5647 4.42664 8.64273 4.58868 8.662L4.66668 8.66667H11.3333L11.4113 8.662C11.5734 8.64273 11.7227 8.5647 11.8311 8.44269C11.9394 8.32068 11.9993 8.16318 11.9993 8C11.9993 7.83682 11.9394 7.67932 11.8311 7.55731C11.7227 7.4353 11.5734 7.35727 11.4113 7.338L11.3333 7.33333ZM11.3333 4.66667H4.66668L4.58868 4.67133C4.42664 4.69061 4.27731 4.76864 4.16895 4.89064C4.0606 5.01265 4.00075 5.17016 4.00075 5.33333C4.00075 5.49651 4.0606 5.65402 4.16895 5.77602C4.27731 5.89803 4.42664 5.97606 4.58868 5.99533L4.66668 6H11.3333L11.4113 5.99533C11.5734 5.97606 11.7227 5.89803 11.8311 5.77602C11.9394 5.65402 11.9993 5.49651 11.9993 5.33333C11.9993 5.17016 11.9394 5.01265 11.8311 4.89064C11.7227 4.76864 11.5734 4.69061 11.4113 4.67133L11.3333 4.66667Z" fill="#606D7F"/>
</svg>
