<svg width="82" height="68" viewBox="0 0 82 68" fill="none" xmlns="http://www.w3.org/2000/svg">
<g clip-path="url(#clip0_1548_1700)">
<path d="M80.5832 17.7222H2.12841C1.61932 17.7222 1.20837 17.3206 1.20837 16.8232V12.1964C1.20837 11.6989 1.61932 11.2974 2.12841 11.2974H80.5832C81.0923 11.2974 81.5032 11.6989 81.5032 12.1964V16.8232C81.5032 17.3206 81.0923 17.7222 80.5832 17.7222ZM3.04845 15.9242H79.6632V13.0954H3.04845V15.9242Z" fill="#154764"/>
<path d="M80.5832 62.3483H2.12841C1.61932 62.3483 1.20837 61.9467 1.20837 61.4493V56.8225C1.20837 56.325 1.61932 55.9235 2.12841 55.9235H80.5832C81.0923 55.9235 81.5032 56.325 81.5032 56.8225V61.4493C81.5032 61.9467 81.0923 62.3483 80.5832 62.3483ZM3.04845 60.5503H79.6632V57.7215H3.04845V60.5503Z" fill="#154764"/>
<path d="M68.0215 57.7215H14.6899C14.1808 57.7215 13.7699 57.3199 13.7699 56.8225V16.8232C13.7699 16.3257 14.1808 15.9242 14.6899 15.9242H68.0277C68.5368 15.9242 68.9477 16.3257 68.9477 16.8232V56.8225C68.9477 57.3199 68.5368 57.7215 68.0277 57.7215H68.0215ZM15.61 55.9235H67.1076V17.7222H15.61V55.9235Z" fill="#154764"/>
<path d="M68.0215 13.0954H14.6899C14.1808 13.0954 13.7699 12.6938 13.7699 12.1964V0.898995C13.7699 0.401551 14.1808 0 14.6899 0H68.0277C68.5368 0 68.9477 0.401551 68.9477 0.898995V12.1964C68.9477 12.6938 68.5368 13.0954 68.0277 13.0954H68.0215ZM15.61 11.2974H67.1076V1.79799H15.61V11.2974Z" fill="#154764"/>
<path d="M68.0215 68H14.6899C14.1808 68 13.7699 67.5984 13.7699 67.101V61.4493C13.7699 60.9518 14.1808 60.5503 14.6899 60.5503H68.0277C68.5368 60.5503 68.9477 60.9518 68.9477 61.4493V67.101C68.9477 67.5984 68.5368 68 68.0277 68H68.0215ZM15.61 66.202H67.1076V62.3483H15.61V66.202Z" fill="#154764"/>
<path d="M74.2901 49.9841C72.6892 49.9841 71.3889 48.7135 71.3889 47.1493C71.3889 45.585 72.6892 44.3145 74.2901 44.3145C75.891 44.3145 77.1913 45.585 77.1913 47.1493C77.1913 48.7135 75.891 49.9841 74.2901 49.9841ZM74.2901 46.1124C73.7074 46.1124 73.229 46.5799 73.229 47.1493C73.229 47.7186 73.7074 48.1861 74.2901 48.1861C74.8728 48.1861 75.3512 47.7186 75.3512 47.1493C75.3512 46.5799 74.8728 46.1124 74.2901 46.1124Z" fill="#154764"/>
<path d="M7.34809 27.5752C5.74722 27.5752 4.4469 26.3046 4.4469 24.7403C4.4469 23.1761 5.74722 21.9055 7.34809 21.9055C8.94896 21.9055 10.2493 23.1761 10.2493 24.7403C10.2493 26.3046 8.94896 27.5752 7.34809 27.5752ZM7.34809 23.7035C6.7654 23.7035 6.28698 24.171 6.28698 24.7403C6.28698 25.3097 6.7654 25.7772 7.34809 25.7772C7.93078 25.7772 8.4092 25.3097 8.4092 24.7403C8.4092 24.171 7.93078 23.7035 7.34809 23.7035Z" fill="#154764"/>
<path d="M6.9126 49.169C5.07252 49.169 3.57593 47.7067 3.57593 45.9087C3.57593 44.1107 5.07252 42.6483 6.9126 42.6483C8.75268 42.6483 10.2493 44.1107 10.2493 45.9087C10.2493 47.7067 8.75268 49.169 6.9126 49.169ZM6.9126 44.4463C6.08457 44.4463 5.41601 45.0996 5.41601 45.9087C5.41601 46.7178 6.0907 47.371 6.9126 47.371C7.7345 47.371 8.4092 46.7178 8.4092 45.9087C8.4092 45.0996 7.7345 44.4463 6.9126 44.4463Z" fill="#154764"/>
<path d="M4.94981 39.9514C2.22036 39.9514 0 37.7818 0 35.1148C0 32.4478 2.22036 30.2782 4.94981 30.2782C7.67926 30.2782 9.89962 32.4478 9.89962 35.1148C9.89962 37.7818 7.67926 39.9514 4.94981 39.9514ZM4.94981 32.0762C3.2324 32.0762 1.84008 33.4427 1.84008 35.1148C1.84008 36.7869 3.23854 38.1534 4.94981 38.1534C6.66108 38.1534 8.05954 36.7869 8.05954 35.1148C8.05954 33.4427 6.66108 32.0762 4.94981 32.0762Z" fill="#154764"/>
<path d="M77.3998 41.102C74.8604 41.102 72.7996 39.0883 72.7996 36.607C72.7996 34.1258 74.8604 32.1121 77.3998 32.1121C79.9391 32.1121 81.9999 34.1258 81.9999 36.607C81.9999 39.0883 79.9391 41.102 77.3998 41.102ZM77.3998 33.9101C75.8786 33.9101 74.6396 35.1207 74.6396 36.607C74.6396 38.0934 75.8786 39.304 77.3998 39.304C78.9209 39.304 80.1599 38.0934 80.1599 36.607C80.1599 35.1207 78.9209 33.9101 77.3998 33.9101Z" fill="#154764"/>
</g>
<defs>
<clipPath id="clip0_1548_1700">
<rect width="82" height="68" fill="white"/>
</clipPath>
</defs>
</svg>
