<svg width="82" height="68" viewBox="0 0 82 68" fill="none" xmlns="http://www.w3.org/2000/svg">
<g clip-path="url(#clip0_6_56)">
<path d="M80.5831 17.7222H2.12835C1.61926 17.7222 1.20831 17.3206 1.20831 16.8232V12.1964C1.20831 11.6989 1.61926 11.2974 2.12835 11.2974H80.5831C81.0922 11.2974 81.5032 11.6989 81.5032 12.1964V16.8232C81.5032 17.3206 81.0922 17.7222 80.5831 17.7222ZM3.04839 15.9242H79.6631V13.0954H3.04839V15.9242Z" fill="white"/>
<path d="M80.5831 62.3483H2.12835C1.61926 62.3483 1.20831 61.9468 1.20831 61.4493V56.8225C1.20831 56.325 1.61926 55.9235 2.12835 55.9235H80.5831C81.0922 55.9235 81.5032 56.325 81.5032 56.8225V61.4493C81.5032 61.9468 81.0922 62.3483 80.5831 62.3483ZM3.04839 60.5503H79.6631V57.7215H3.04839V60.5503Z" fill="white"/>
<path d="M68.0215 57.7215H14.69C14.1809 57.7215 13.7699 57.3199 13.7699 56.8225V16.8232C13.7699 16.3258 14.1809 15.9242 14.69 15.9242H68.0277C68.5368 15.9242 68.9477 16.3258 68.9477 16.8232V56.8225C68.9477 57.3199 68.5368 57.7215 68.0277 57.7215H68.0215ZM15.61 55.9235H67.1076V17.7222H15.61V55.9235Z" fill="white"/>
<path d="M68.0215 13.0954H14.69C14.1809 13.0954 13.7699 12.6938 13.7699 12.1964V0.898995C13.7699 0.401551 14.1809 0 14.69 0H68.0277C68.5368 0 68.9477 0.401551 68.9477 0.898995V12.1964C68.9477 12.6938 68.5368 13.0954 68.0277 13.0954H68.0215ZM15.61 11.2974H67.1076V1.79799H15.61V11.2974Z" fill="white"/>
<path d="M68.0215 68H14.69C14.1809 68 13.7699 67.5984 13.7699 67.101V61.4493C13.7699 60.9519 14.1809 60.5503 14.69 60.5503H68.0277C68.5368 60.5503 68.9477 60.9519 68.9477 61.4493V67.101C68.9477 67.5984 68.5368 68 68.0277 68H68.0215ZM15.61 66.202H67.1076V62.3483H15.61V66.202Z" fill="white"/>
<path d="M74.2901 49.9841C72.6892 49.9841 71.3889 48.7135 71.3889 47.1493C71.3889 45.585 72.6892 44.3145 74.2901 44.3145C75.8909 44.3145 77.1913 45.585 77.1913 47.1493C77.1913 48.7135 75.8909 49.9841 74.2901 49.9841ZM74.2901 46.1125C73.7074 46.1125 73.229 46.5799 73.229 47.1493C73.229 47.7187 73.7074 48.1861 74.2901 48.1861C74.8728 48.1861 75.3512 47.7187 75.3512 47.1493C75.3512 46.5799 74.8728 46.1125 74.2901 46.1125Z" fill="white"/>
<path d="M7.34804 27.5752C5.74717 27.5752 4.44685 26.3046 4.44685 24.7403C4.44685 23.1761 5.74717 21.9055 7.34804 21.9055C8.94891 21.9055 10.2492 23.1761 10.2492 24.7403C10.2492 26.3046 8.94891 27.5752 7.34804 27.5752ZM7.34804 23.7035C6.76535 23.7035 6.28693 24.171 6.28693 24.7403C6.28693 25.3097 6.76535 25.7772 7.34804 25.7772C7.93073 25.7772 8.40915 25.3097 8.40915 24.7403C8.40915 24.171 7.93073 23.7035 7.34804 23.7035Z" fill="white"/>
<path d="M6.91256 49.1691C5.07248 49.1691 3.57588 47.7067 3.57588 45.9087C3.57588 44.1107 5.07248 42.6483 6.91256 42.6483C8.75263 42.6483 10.2492 44.1107 10.2492 45.9087C10.2492 47.7067 8.75263 49.1691 6.91256 49.1691ZM6.91256 44.4463C6.08452 44.4463 5.41596 45.0996 5.41596 45.9087C5.41596 46.7178 6.09066 47.3711 6.91256 47.3711C7.73446 47.3711 8.40915 46.7178 8.40915 45.9087C8.40915 45.0996 7.73446 44.4463 6.91256 44.4463Z" fill="white"/>
<path d="M4.94981 39.9514C2.22036 39.9514 0 37.7818 0 35.1148C0 32.4477 2.22036 30.2782 4.94981 30.2782C7.67926 30.2782 9.89962 32.4477 9.89962 35.1148C9.89962 37.7818 7.67926 39.9514 4.94981 39.9514ZM4.94981 32.0762C3.2324 32.0762 1.84008 33.4426 1.84008 35.1148C1.84008 36.7869 3.23854 38.1534 4.94981 38.1534C6.66108 38.1534 8.05954 36.7869 8.05954 35.1148C8.05954 33.4426 6.66108 32.0762 4.94981 32.0762Z" fill="white"/>
<path d="M77.3998 41.1021C74.8605 41.1021 72.7996 39.0883 72.7996 36.6071C72.7996 34.1259 74.8605 32.1121 77.3998 32.1121C79.9391 32.1121 82 34.1259 82 36.6071C82 39.0883 79.9391 41.1021 77.3998 41.1021ZM77.3998 33.9101C75.8787 33.9101 74.6397 35.1207 74.6397 36.6071C74.6397 38.0934 75.8787 39.3041 77.3998 39.3041C78.9209 39.3041 80.1599 38.0934 80.1599 36.6071C80.1599 35.1207 78.9209 33.9101 77.3998 33.9101Z" fill="white"/>
</g>
<defs>
<clipPath id="clip0_6_56">
<rect width="82" height="68" fill="white"/>
</clipPath>
</defs>
</svg>
