<svg width="79" height="79" viewBox="0 0 79 79" fill="none" xmlns="http://www.w3.org/2000/svg">
<path d="M42.9409 35.1973L50.4157 42.6915C52.7096 44.9915 53.9726 48.0926 53.9726 51.3229V72.5653C53.9726 73.1338 54.2046 73.7023 54.5912 74.1158L54.6943 74.245C56.0604 75.6664 55.0551 78.0439 53.0962 78.0439H26.0326C24.048 78.0439 23.0427 75.6664 24.4346 74.245L24.5377 74.1158C24.9501 73.7023 25.1563 73.1338 25.1563 72.5653V51.3229C25.1563 48.0926 26.445 44.9657 28.7132 42.6915L36.1879 35.1973H42.9152H42.9409Z" stroke="white" stroke-width="1.8" stroke-linejoin="round"/>
<path d="M25.1305 24.4727C25.1305 21.2424 26.4192 18.1154 28.6874 15.8413L36.1621 8.34705H42.8894L50.3641 15.8413C52.6581 18.1413 53.921 21.2424 53.921 24.4727" stroke="white" stroke-width="1.8" stroke-linejoin="round"/>
<path d="M21.0581 68.508H3.19607C1.21141 68.508 0.206186 66.1305 1.59803 64.7092L1.70113 64.58C2.11353 64.1665 2.31973 63.598 2.31973 63.0294V41.7871C2.31973 38.5568 3.60847 35.4298 5.87666 33.1557L13.3514 25.6614H20.0786L27.5533 33.1557" stroke="white" stroke-width="1.8" stroke-linejoin="round"/>
<path d="M57.9419 68.508H75.7782C77.7628 68.508 78.768 66.1305 77.3762 64.7092L77.2731 64.58C76.8607 64.1665 76.6545 63.598 76.6545 63.0294V41.7871C76.6545 38.5568 75.3658 35.4298 73.0976 33.1557L65.6229 25.6614H58.8956L51.4209 33.1557" stroke="white" stroke-width="1.8" stroke-linejoin="round"/>
<path d="M12.6297 25.6098L10.877 21.7851C10.1037 20.1312 11.3152 18.2447 13.1452 18.2447H20.2591C22.0375 18.2447 23.2489 20.0795 22.553 21.7076L20.9292 25.6098H12.6555H12.6297Z" stroke="white" stroke-width="1.8" stroke-linejoin="round"/>
<path d="M14.6917 21.3458L15.3618 25.6097L13.171 31.0108" stroke="white" stroke-width="1.8" stroke-linejoin="round"/>
<path d="M18.8157 21.3458L18.1455 25.6097L20.3106 31.0108" stroke="white" stroke-width="1.8" stroke-linejoin="round"/>
<path d="M35.4147 35.1972L33.662 31.3726C32.8887 29.7187 34.1001 27.8322 35.9302 27.8322H43.044C44.8225 27.8322 46.0339 29.667 45.338 31.2951L43.7142 35.1972H35.4404H35.4147Z" stroke="white" stroke-width="1.8" stroke-linejoin="round"/>
<path d="M37.4767 30.9333L38.1468 35.1972L35.9818 40.5983" stroke="white" stroke-width="1.8" stroke-linejoin="round"/>
<path d="M41.6006 30.9333L40.9305 35.1972L43.0956 40.5983" stroke="white" stroke-width="1.8" stroke-linejoin="round"/>
<path d="M58.2512 25.6873L56.4985 21.8626C55.7253 20.2087 56.9367 18.3222 58.7667 18.3222H65.8806C67.659 18.3222 68.8705 20.157 68.1745 21.7851L66.5507 25.6873H58.277H58.2512Z" stroke="white" stroke-width="1.8" stroke-linejoin="round"/>
<path d="M60.2874 21.3975L60.9576 25.6873L58.7925 31.0625" stroke="white" stroke-width="1.8" stroke-linejoin="round"/>
<path d="M64.4114 21.3975L63.7413 25.6873L65.9064 31.0625" stroke="white" stroke-width="1.8" stroke-linejoin="round"/>
<path d="M35.5178 8.34706L33.7651 4.52239C32.9919 2.86848 34.2033 0.981995 36.0333 0.981995H43.1472C44.9256 0.981995 46.1371 2.8168 45.4411 4.44487L43.8173 8.34706H35.5436H35.5178Z" stroke="white" stroke-width="1.8" stroke-linejoin="round"/>
<path d="M37.554 4.05725L38.2242 8.34708L36.0591 13.7223" stroke="white" stroke-width="1.8" stroke-linejoin="round"/>
<path d="M41.678 4.05725L41.0078 8.34708L43.1987 13.7223" stroke="white" stroke-width="1.8" stroke-linejoin="round"/>
</svg>
