<svg width="79" height="79" viewBox="0 0 79 79" fill="none" xmlns="http://www.w3.org/2000/svg">
<g clip-path="url(#clip0_1618_2739)">
<path d="M42.9412 35.1973L50.4159 42.6915C52.7099 44.9915 53.9728 48.0926 53.9728 51.3229V72.5653C53.9728 73.1338 54.2048 73.7023 54.5914 74.1158L54.6945 74.245C56.0606 75.6664 55.0554 78.0439 53.0965 78.0439H26.0329C24.0482 78.0439 23.043 75.6664 24.4348 74.245L24.5379 74.1158C24.9503 73.7023 25.1565 73.1338 25.1565 72.5653V51.3229C25.1565 48.0926 26.4453 44.9657 28.7135 42.6915L36.1882 35.1973H42.9154H42.9412Z" stroke="#154764" stroke-width="1.8" stroke-linejoin="round"/>
<path d="M25.1304 24.4727C25.1304 21.2424 26.4191 18.1154 28.6873 15.8413L36.162 8.34705H42.8893L50.364 15.8413C52.6579 18.1413 53.9209 21.2424 53.9209 24.4727" stroke="#154764" stroke-width="1.8" stroke-linejoin="round"/>
<path d="M21.0579 68.508H3.19595C1.21128 68.508 0.206064 66.1305 1.59791 64.7091L1.70101 64.5799C2.11341 64.1664 2.3196 63.5979 2.3196 63.0294V41.787C2.3196 38.5567 3.60835 35.4298 5.87654 33.1557L13.3513 25.6614H20.0785L27.5532 33.1557" stroke="#154764" stroke-width="1.8" stroke-linejoin="round"/>
<path d="M57.9419 68.508H75.7782C77.7628 68.508 78.768 66.1305 77.3762 64.7091L77.2731 64.5799C76.8607 64.1664 76.6545 63.5979 76.6545 63.0294V41.787C76.6545 38.5567 75.3658 35.4298 73.0976 33.1557L65.6229 25.6614H58.8956L51.4209 33.1557" stroke="#154764" stroke-width="1.8" stroke-linejoin="round"/>
<path d="M12.6296 25.6097L10.8769 21.785C10.1036 20.1311 11.315 18.2446 13.1451 18.2446H20.2589C22.0374 18.2446 23.2488 20.0794 22.5529 21.7075L20.9291 25.6097H12.6553H12.6296Z" stroke="#154764" stroke-width="1.8" stroke-linejoin="round"/>
<path d="M14.6916 21.3457L15.3618 25.6097L13.1709 31.0107" stroke="#154764" stroke-width="1.8" stroke-linejoin="round"/>
<path d="M18.8157 21.3457L18.1455 25.6097L20.3106 31.0107" stroke="#154764" stroke-width="1.8" stroke-linejoin="round"/>
<path d="M35.4147 35.1972L33.662 31.3726C32.8888 29.7186 34.1002 27.8322 35.9302 27.8322H43.0441C44.8226 27.8322 46.034 29.667 45.338 31.295L43.7142 35.1972H35.4405H35.4147Z" stroke="#154764" stroke-width="1.8" stroke-linejoin="round"/>
<path d="M37.4769 30.9332L38.147 35.1972L35.9819 40.5983" stroke="#154764" stroke-width="1.8" stroke-linejoin="round"/>
<path d="M41.6008 30.9332L40.9307 35.1972L43.0958 40.5983" stroke="#154764" stroke-width="1.8" stroke-linejoin="round"/>
<path d="M58.2511 25.6873L56.4985 21.8627C55.7252 20.2088 56.9366 18.3223 58.7666 18.3223H65.8805C67.659 18.3223 68.8704 20.1571 68.1745 21.7851L66.5507 25.6873H58.2769H58.2511Z" stroke="#154764" stroke-width="1.8" stroke-linejoin="round"/>
<path d="M60.2874 21.3975L60.9576 25.6873L58.7925 31.0625" stroke="#154764" stroke-width="1.8" stroke-linejoin="round"/>
<path d="M64.4114 21.3975L63.7412 25.6873L65.9063 31.0625" stroke="#154764" stroke-width="1.8" stroke-linejoin="round"/>
<path d="M35.5177 8.34712L33.7651 4.52245C32.9918 2.86855 34.2032 0.982056 36.0332 0.982056H43.1471C44.9256 0.982056 46.137 2.81686 45.4411 4.44493L43.8173 8.34712H35.5435H35.5177Z" stroke="#154764" stroke-width="1.8" stroke-linejoin="round"/>
<path d="M37.554 4.05725L38.2242 8.34708L36.0591 13.7223" stroke="#154764" stroke-width="1.8" stroke-linejoin="round"/>
<path d="M41.678 4.05725L41.0078 8.34708L43.1987 13.7223" stroke="#154764" stroke-width="1.8" stroke-linejoin="round"/>
</g>
<defs>
<clipPath id="clip0_1618_2739">
<rect width="79" height="79" fill="white"/>
</clipPath>
</defs>
</svg>
