<svg width="33" height="64" viewBox="0 0 33 64" fill="none" xmlns="http://www.w3.org/2000/svg">
<path d="M32.9933 22.5382C32.8996 19.1642 31.8407 15.8095 30.004 13.0236C29.0576 11.5872 27.9143 10.3629 26.6868 9.19651C24.2222 6.86364 21.7483 4.52113 19.2838 2.18827C18.5154 1.45563 17.747 0.732636 16.9692 0C13.8956 2.91126 10.822 5.82252 7.74834 8.73379C7.37351 9.09047 7.00805 9.43751 6.63322 9.79418C4.95584 11.3944 3.59707 13.3031 2.61313 15.4239C1.37619 18.0942 0.945129 20.9476 0.945129 23.8781C0.945129 28.7752 0.945129 33.6627 0.945129 38.5598C0.945129 40.8637 0.98261 43.1195 1.60108 45.3656C2.54754 48.7685 4.44981 51.6797 6.96119 54.0608C10.2035 57.136 13.4458 60.2015 16.6881 63.2766C16.7818 63.3634 16.8755 63.4501 16.9692 63.5369C18.8059 61.792 20.6426 60.0569 22.4793 58.312C23.6694 57.1842 24.8688 56.0563 26.0589 54.9284C26.8461 54.1861 27.652 53.4535 28.3735 52.6437C30.3226 50.4555 31.7376 47.7756 32.4592 44.8932C32.8621 43.2641 32.9933 41.6156 32.9933 39.9479C32.9933 36.8728 32.9933 33.788 32.9933 30.7129C32.9933 28.1583 33.0121 25.6133 32.9933 23.0587C32.9933 22.8852 32.984 22.7117 32.9933 22.5382ZM5.04018 22.5286C5.07766 21.4971 5.22759 20.4656 5.48997 19.463L14.9076 28.4957V37.8753C13.6332 36.6607 12.3494 35.4557 11.075 34.2411C9.35075 32.6119 7.664 31.031 6.55825 28.8524C5.58368 26.9533 4.96521 24.7072 5.04018 22.5286ZM19.0121 28.5053L28.4204 19.4341C29.5542 23.6564 28.3923 28.1776 25.6372 31.4841C24.2316 33.1711 22.4793 34.5978 20.8956 36.1016C20.2678 36.6993 19.6399 37.2969 19.0121 37.885V28.5053ZM25.0281 13.3899C25.6185 14.0068 26.1526 14.6816 26.6212 15.4046L19.0121 22.7406V7.66376C20.6707 9.23507 24.7001 13.0428 25.0281 13.3899ZM14.917 7.66376V22.7503L7.28917 15.4336C8.1794 14.0647 9.31327 12.9754 10.4752 11.8668C11.6466 10.7582 12.8273 9.63994 13.9987 8.53135C14.2985 8.24215 14.6078 7.95296 14.917 7.66376ZM24.5221 50.6483L16.9599 57.8108C14.6734 55.6514 12.3963 53.4921 10.1098 51.3231C8.57297 49.8674 7.21421 48.3058 6.30524 46.3392C5.60243 44.8257 5.17137 43.1773 5.04954 41.5096C5.00269 40.8059 5.01207 40.1022 5.01207 39.3888C5.01207 37.5958 5.01207 35.8124 5.01207 34.0194C6.36147 35.6774 8.02946 37.0945 9.56628 38.5501C11.5435 40.4203 13.5208 42.3001 15.5074 44.1702C15.9853 44.6233 16.4632 45.0764 16.9505 45.5391C18.2343 44.3245 19.5181 43.1098 20.8019 41.8952C22.6854 40.1118 24.569 38.3188 26.4619 36.5354C27.3052 35.7353 28.1486 34.9352 28.8889 34.0194C28.8889 35.6485 28.8889 37.2873 28.8889 38.9165C28.8889 39.4949 28.8983 40.0829 28.8889 40.6709C28.8702 42.4447 28.5047 44.2088 27.83 45.8379C27.0803 47.6599 25.9371 49.3083 24.5221 50.6483Z" fill="white"/>
</svg>
