<svg width="24" height="24" viewBox="0 0 24 24" fill="none" xmlns="http://www.w3.org/2000/svg">
<path fill-rule="evenodd" clip-rule="evenodd" d="M12.7291 2.02648C12.615 1.99964 12.4963 1.99273 12.3786 2.00705C12.2527 2.00229 12.1265 1.99989 12 1.99989C11.8735 1.99989 11.7473 2.00229 11.6214 2.00705C11.5037 1.99273 11.385 1.99964 11.2709 2.02648C8.88531 2.20078 6.6317 3.22606 4.92893 4.92882C3.05357 6.80419 2 9.34773 2 11.9999C2 13.3131 2.25866 14.6135 2.7612 15.8267C3.26375 17.04 4.00035 18.1424 4.92893 19.071C5.85752 19.9995 6.95991 20.7361 8.17317 21.2387C9.1613 21.648 10.2072 21.8955 11.2708 21.9733C11.3849 22.0001 11.5037 22.0071 11.6215 21.9927C11.7475 21.9975 11.8737 21.9999 12 21.9999C12.1263 21.9999 12.2525 21.9975 12.3785 21.9927C12.4963 22.0071 12.6151 22.0001 12.7292 21.9733C13.7928 21.8955 14.8387 21.648 15.8268 21.2387C17.0401 20.7361 18.1425 19.9995 19.0711 19.071C19.9997 18.1424 20.7362 17.04 21.2388 15.8267C21.7413 14.6135 22 13.3131 22 11.9999C22 9.34773 20.9464 6.80419 19.0711 4.92882C17.3683 3.22606 15.1147 2.20078 12.7291 2.02648ZM9.6235 4.36102C8.39676 4.7427 7.26832 5.41787 6.34315 6.34304C5.84444 6.84174 5.41838 7.3995 5.07177 7.99989H8.37227C8.65774 6.74745 9.07685 5.52736 9.6235 4.36102ZM10.4303 7.99989C10.7798 6.64633 11.3063 5.3397 12 4.11495C12.6937 5.3397 13.2202 6.64633 13.5697 7.99989H10.4303ZM8.03365 9.99989H4.25401C4.08671 10.6478 4 11.3194 4 11.9999C4 12.6761 4.08573 13.348 4.25403 13.9999H8.03365C7.95964 13.3379 7.9222 12.6702 7.9222 11.9999C7.9222 11.3296 7.95964 10.6619 8.03365 9.99989ZM10.0477 13.9999C9.96439 13.3387 9.9222 12.6708 9.9222 11.9999C9.9222 11.329 9.96439 10.661 10.0477 9.99989H13.9523C14.0356 10.661 14.0778 11.329 14.0778 11.9999C14.0778 12.6708 14.0356 13.3387 13.9523 13.9999H10.0477ZM8.37227 15.9999H5.0718C5.42061 16.6041 5.84772 17.1613 6.34315 17.6567C7.08601 18.3996 7.96793 18.9889 8.93853 19.3909C9.16336 19.4841 9.39192 19.5667 9.62349 19.6388C9.07685 18.4724 8.65774 17.2523 8.37227 15.9999ZM12 19.8848C11.3063 18.6601 10.7798 17.3535 10.4303 15.9999H13.5697C13.2202 17.3535 12.6937 18.6601 12 19.8848ZM14.3765 19.6388C14.6081 19.5667 14.8366 19.4841 15.0615 19.3909C16.0321 18.9889 16.914 18.3996 17.6569 17.6567C18.1523 17.1613 18.5794 16.6041 18.9282 15.9999H15.6277C15.3423 17.2523 14.9231 18.4724 14.3765 19.6388ZM15.9663 13.9999H19.746C19.9143 13.348 20 12.6761 20 11.9999C20 11.3194 19.9133 10.6478 19.746 9.99989H15.9663C16.0404 10.6619 16.0778 11.3296 16.0778 11.9999C16.0778 12.6702 16.0404 13.3379 15.9663 13.9999ZM15.6277 7.99989H18.9282C18.5816 7.3995 18.1556 6.84174 17.6569 6.34304C16.7317 5.41787 15.6032 4.7427 14.3765 4.36101C14.9231 5.52736 15.3423 6.74745 15.6277 7.99989Z" fill="white"/>
</svg>
